<svg width="94" height="109" viewBox="0 0 94 109" fill="none" xmlns="http://www.w3.org/2000/svg">
<path d="M8.99999 15.1993C9.5 13.6993 10.5 11.6993 10.5 11.6993C10.5 11.6993 12 11.1993 15 14.6993C17 17.6993 17.5 19.1994 17.5 22.1994C17.5 25.1994 16 27.6993 16 27.6993L12 25.1993L9.99999 23.1993L8.99999 20.6993C8.99999 20.6993 8.5 18.6993 8.99999 15.1993Z" fill="#64B83A"/>
<path d="M78 26.6993C77 28.1993 75.3935 29.4376 75.3935 29.4376C75.3935 29.4376 73.8622 29.0437 73.2411 24.476C73.1887 20.8708 73.5825 19.3395 75.2102 16.8195C76.8378 14.2994 80 12.6993 80 12.6993C80 12.6993 80.8783 13.4559 81.5 14.6993C82.1217 15.9428 82.0529 17.1993 82.0529 17.1993L82.0529 20.0486L81 22.6993C81 22.6993 79.9475 23.5874 78 26.6993Z" fill="#64B83A"/>
<path d="M22.5 29.6993C19.5 28.1993 18 28.1994 16.5 27.1994C19 24.6994 19.5 23.6993 23.5 22.6993C27.4983 22.1856 31 23.1994 34.3088 26.3429C37.6175 29.4864 38.5 30.6993 38.5 30.6993L34 30.6993L31.5 31.1993L28.5 31.1993C28.5 31.1993 25.5 31.1993 22.5 29.6993Z" fill="#64B83A"/>
<path d="M60 30.6994C56.8272 29.4843 55.5 26.7804 54 26C55.931 23.0383 59.5012 22.8015 61 22.5C63 22.0977 67.5 22.5 70.7713 24.1532C74.0426 25.8064 74.5 28.1993 74.5 28.1993L73.5 29.1993L71.5 29.1993L69.5 30.1993L66 31.6994C66 31.6994 63.2448 31.5487 60 30.6994Z" fill="#64B83A"/>
<path d="M19.5 62.5327L31 66.1993L36.5 68.6993L42 72.1993L51 78.6993L59.5 86.1993L55 87.1993L51 87.6993L46.5 88.1993L41 87.6993L37 80.6993L31 74.6993L24 68.1993L16 64.1993L9 61.5L19.5 62.5327Z" fill="#64B83A"/>
<path d="M66.5 68L69 64.6993L72.5 62.1993L76 60.1993L80.5 58.1993H81.5L81 59.1993L78 61.6993L75.5 65.1993L74 68.1993L72.5 71.6993L66.5 68Z" fill="#64B83A"/>
<path d="M9 60.6993C14.8333 59.6993 20.5 58.1993 31.5 58.1993C41.5 58.6993 47.5 60.0208 55 62.6993C62 65.1993 73.5 72.1993 75.5 73.6993" stroke="black" stroke-width="0.5"/>
<path d="M59.5 64.6993C61.5 62 67.3078 60.0726 70 59.1994C75 57.6994 77.3079 57.5726 82.5 57.1994" stroke="black" stroke-width="0.5"/>
<path d="M66 68C69.5 63.5 76.0974 58.9861 82 57.6993" stroke="black"/>
<path d="M73 72C74.5 66.5 77 61.6993 82.5 58.1993" stroke="black"/>
<path fill-rule="evenodd" clip-rule="evenodd" d="M4.58261 28.4176C4.29091 28.8183 4.01269 29.3922 4.00041 29.8783C3.99451 30.1116 4.04978 30.3014 4.17163 30.4546C4.29562 30.6105 4.53004 30.7806 4.97837 30.8934C5.26054 30.9644 5.42768 30.9257 5.52469 30.8761C5.62505 30.8247 5.71144 30.7302 5.77336 30.5842C5.8364 30.4356 5.86455 30.2528 5.85382 30.0738C5.84282 29.8904 5.79391 29.7533 5.74626 29.6814L6.57998 29.1292C6.75013 29.3861 6.83363 29.707 6.85203 30.014C6.87069 30.3254 6.82522 30.6653 6.69398 30.9747C6.56161 31.2868 6.33307 31.5857 5.98021 31.7663C5.62398 31.9486 5.19961 31.9802 4.73434 31.8632C4.13724 31.7129 3.6856 31.45 3.38897 31.077C3.0902 30.7014 2.99029 30.2663 3.00073 29.853C3.02082 29.0575 3.44794 28.2664 3.80202 27.7912L3.82324 27.7627L3.84826 27.7375C4.61808 26.9627 5.64545 26.6652 6.60717 26.7025C7.56141 26.7394 8.50542 27.1075 9.13139 27.7375L9.15641 27.7627L9.17762 27.7912C9.69421 28.4845 10.0208 29.1244 10.1633 29.7702C10.3073 30.4224 10.2552 31.0423 10.0744 31.6792C9.89668 32.3054 9.59099 32.9592 9.22193 33.6816C9.0775 33.9642 8.92492 34.2545 8.76415 34.5604C8.50357 35.0562 8.22148 35.5929 7.91769 36.2044C6.32609 39.4085 5.02823 44.9215 4.86613 51.1215C4.7042 57.3151 5.67762 64.1336 8.57108 69.9584C14.3605 81.6131 28.3795 91.1994 46.5 91.1994C64.5731 91.1994 75.7208 79.6822 78.935 75.1529C78.9824 75.0861 79.0303 75.0186 79.0787 74.9505C80.6945 72.6763 82.8492 69.6436 84.2523 64.7008C85.6976 59.6091 86.3533 52.456 84.7327 42C84.091 39.4251 83.1838 37.329 82.404 35.7052C82.2083 35.2976 82.0209 34.9202 81.8469 34.571L81.8082 34.4931C81.6497 34.1748 81.5021 33.8785 81.3727 33.6084C81.1017 33.0427 80.8776 32.5278 80.8097 32.1176C80.6888 31.3878 80.7183 30.2787 81.2405 29.3288C81.7867 28.3352 82.8331 27.5899 84.5699 27.5899C86.2977 27.5899 87.3127 28.3309 87.7514 29.2772C87.9621 29.7316 88.0278 30.2107 87.9897 30.632C87.953 31.039 87.8122 31.4548 87.5382 31.7307C86.6011 32.6739 84.9625 32.4829 83.5618 31.073L84.2712 30.3682C85.4841 31.589 86.459 31.398 86.8288 31.0259C86.8814 30.9729 86.9693 30.8132 86.9938 30.542C87.017 30.2851 86.9765 29.9832 86.8442 29.6978C86.5968 29.1643 85.9784 28.5899 84.5699 28.5899C83.1704 28.5899 82.4745 29.16 82.1168 29.8106C81.7351 30.5049 81.6993 31.3687 81.7962 31.9543C81.8372 32.2018 81.9943 32.5912 82.2746 33.1764C82.4007 33.4397 82.5452 33.7298 82.7052 34.051L82.7421 34.1252C82.9161 34.4747 83.1064 34.8577 83.3055 35.2723C84.1026 36.9323 85.0438 39.1039 85.7086 41.7805L85.7139 41.8022L85.7174 41.8243C87.3593 52.4016 86.7082 59.7108 85.2143 64.9738C83.7639 70.0835 81.5267 73.2319 79.8995 75.5219C79.8492 75.5926 79.7996 75.6625 79.7505 75.7316C76.4308 80.4096 65.0168 92.1994 46.5 92.1994C28.0306 92.1994 13.6471 82.4248 7.67549 70.4033C4.68845 64.3901 3.70171 57.3974 3.86647 51.0953C4.03107 44.7996 5.34678 39.1322 7.02211 35.7595C7.32807 35.1436 7.62425 34.5798 7.89046 34.0731C8.0496 33.7702 8.19803 33.4877 8.33143 33.2266C8.69743 32.5102 8.96346 31.931 9.11242 31.4062C9.25831 30.8922 9.28787 30.4433 9.18685 29.9858C9.08604 29.5292 8.84704 29.0271 8.39783 28.4185C7.97637 28.0093 7.29894 27.73 6.56848 27.7017C5.84274 27.6736 5.1173 27.8949 4.58261 28.4176Z" fill="black"/>
<path fill-rule="evenodd" clip-rule="evenodd" d="M27.04 0L27.37 0.363013C28.2839 1.36831 29.2243 3.39964 29.7941 5.67345C30.3667 7.95819 30.5924 10.5942 29.9824 12.8309C29.5852 14.2874 28.9396 15.707 28.199 16.8938C27.4636 18.0723 26.6103 19.0601 25.7774 19.6154C25.0487 20.1011 24.7468 20.4265 24.6163 20.6441C24.5891 20.6894 24.5683 20.7313 24.5523 20.7722C26.1653 20.6466 27.9189 20.7172 29.6689 21.0983C34.0592 22.0542 36.995 24.8758 39.0529 31.4611L38.1284 31.8338C38.1284 31.8338 38.1222 31.8216 38.1001 31.7955C38.0787 31.7703 38.0462 31.7374 38 31.6993C37.9074 31.6231 37.7662 31.5318 37.5638 31.4438C37.1595 31.268 36.5215 31.1102 35.5757 31.1102C34.3462 31.1102 33.7887 31.3228 31.9719 31.4481C31.5741 31.4756 31.183 31.5032 30.8094 31.5296C29.5003 31.6221 28.4068 31.6993 28 31.6993C27.4494 31.6993 26.1576 31.5666 24.6287 31.1844C23.0966 30.8014 21.287 30.1582 19.7226 29.1154C19.0454 28.6639 18.4554 28.5132 17.9516 28.5196C17.4439 28.526 16.9829 28.6927 16.5697 28.9406C15.9172 29.3321 15.4643 29.8576 15.1382 30.2358C15.0434 30.3458 14.9593 30.4434 14.8842 30.5216C12.9456 33.4257 11.4631 36.9538 10.4152 40.3469C9.11204 44.5667 8.49997 48.5149 8.5 50.6993C8.5 50.7779 8.49986 50.8619 8.4997 50.9514C8.49536 53.421 8.48382 59.9867 11.3993 67.0076C14.4104 74.259 20.5532 82.0186 33.1421 86.2197C45.5258 89.4359 54.9014 87.8188 61.7894 84.6208C68.6906 81.4167 73.1318 76.608 75.6037 73.3945L75.6108 73.3853L75.6183 73.3764C78.2909 70.2179 81.3856 63.4441 82.19 55.4617C82.9926 47.4969 81.5093 38.3884 75.1119 30.5146L75.0718 30.4654L75.0454 30.4077C72.2826 24.3796 71.7318 21.1419 72.1942 18.3672C72.4226 16.9967 72.8953 15.7629 73.4161 14.4103L73.4375 14.3548C73.9554 13.01 74.5297 11.5185 75.0149 9.57808C75.2083 8.80428 75.4328 8.19427 75.6919 7.73705C75.9493 7.28281 76.2645 6.93802 76.6582 6.76503C77.0695 6.58432 77.487 6.62532 77.862 6.7889C78.2237 6.94664 78.5588 7.22186 78.863 7.54298C79.4723 8.18615 80.06 9.12432 80.5812 10.0958C81.1066 11.0749 81.5818 12.121 81.9596 13.0024L81.9691 13.0247L81.9765 13.0477C82.3764 14.3048 82.9043 16.0096 82.7343 18.176C82.5637 20.348 81.6971 22.9365 79.4 25.9993L79.3947 26.0064L76.1372 30.1944C82.5287 38.2487 83.9968 47.5055 83.1849 55.562C82.3651 63.6973 79.2147 70.6684 76.3892 74.0134C73.8598 77.2999 69.3028 82.235 62.2105 85.5279C55.1015 88.8285 45.4823 90.4614 32.8741 87.1833L32.8578 87.179L32.8418 87.1737C19.9415 82.8736 13.5883 74.8866 10.4757 67.3911C7.48239 60.1826 7.495 53.4494 7.49967 50.9579C7.49984 50.8659 7.5 50.7796 7.5 50.6994C7.49997 48.3838 8.13789 44.3321 9.45973 40.0518C10.7191 35.9739 12.6164 31.6319 15.2238 28.3571C13.7793 27.5749 12.0176 26.4241 10.6464 25.0529C9.84149 24.248 8.28899 22.2683 8.03907 19.1771C7.78829 16.0754 8.85653 11.9498 13.1171 6.87775L13.4452 6.4871L13.8292 6.82306C16.3209 9.00329 17.959 11.3683 18.8999 13.7596C18.9521 13.2938 18.941 12.7893 18.9281 12.1959C18.9271 12.1511 18.9261 12.1058 18.9251 12.06C18.8997 10.8665 18.8984 9.42312 19.5257 7.54123C20.1719 5.60254 21.6809 4.06942 23.1364 2.89741C23.8691 2.3074 24.6037 1.79709 25.2292 1.36702C25.2719 1.33766 25.314 1.30876 25.3554 1.28031C25.9343 0.882606 26.3858 0.572391 26.6707 0.323061L27.04 0ZM19.4426 15.4207C19.7005 16.4062 19.8465 17.3899 19.8913 18.3608C19.9468 19.5607 19.8477 20.737 19.617 21.8689C20.6621 21.4477 22.0045 21.0835 23.5106 20.8823C23.5307 20.6666 23.5892 20.4122 23.7588 20.1296C24.0032 19.7222 24.4513 19.2976 25.2227 18.7833C25.8897 18.3386 26.6528 17.4827 27.3506 16.3644C28.0433 15.2544 28.6477 13.924 29.0176 12.5678C29.5653 10.5595 29.3744 8.11222 28.8241 5.91653C28.3415 3.99073 27.6035 2.33945 26.923 1.39993C26.6402 1.6112 26.3036 1.84232 25.9453 2.08835C25.8958 2.1223 25.846 2.15654 25.7958 2.19106C25.1713 2.62036 24.4642 3.11213 23.7636 3.67629C22.3524 4.81261 21.0281 6.19616 20.4743 7.85746C19.9016 9.57558 19.9003 10.8822 19.9249 12.0387C19.9263 12.1073 19.9279 12.1757 19.9295 12.2441C19.9546 13.3151 19.979 14.3594 19.4472 15.423L19.4426 15.4207ZM19.3089 23.1029C18.818 24.7598 18.0456 26.2972 17.0708 27.6426C17.3428 27.5684 17.6325 27.5236 17.939 27.5197C18.6696 27.5104 19.4546 27.7348 20.2774 28.2833C21.713 29.2404 23.4034 29.8473 24.8713 30.2143C26.3424 30.582 27.5506 30.6993 28 30.6993C28.3681 30.6993 29.4002 30.6265 30.6945 30.5351C31.0779 30.5081 31.4842 30.4794 31.9031 30.4505C33.7113 30.3258 34.3051 30.1102 35.5757 30.1102C36.4268 30.1102 37.0983 30.2247 37.6169 30.3955C35.5361 25.1465 33.2132 22.8934 29.4561 22.0754C25.3984 21.1919 21.3212 22.0878 19.3089 23.1029ZM15.8707 27.5692C17.838 25.1034 19.0517 21.853 18.8924 18.407C18.7324 14.946 17.1858 11.2493 13.5537 7.91871C9.69377 12.6577 8.81766 16.3983 9.03581 19.0966C9.26089 21.8804 10.6584 23.6507 11.3535 24.3458C12.6888 25.6811 14.4493 26.8156 15.8707 27.5692ZM75.6144 29.2378C73.1804 23.7614 72.7858 20.9005 73.1806 18.5316C73.3897 17.277 73.8232 16.1359 74.3493 14.7697L74.3745 14.7042C74.8921 13.3603 75.4849 11.8209 75.985 9.82062C76.1666 9.09442 76.3639 8.57944 76.5619 8.23002C76.7616 7.87762 76.9385 7.73413 77.0605 7.68055C77.1648 7.6347 77.2865 7.62885 77.4622 7.70551C77.6514 7.788 77.8787 7.95809 78.137 8.23073C78.6527 8.77505 79.1901 9.61813 79.7001 10.5686C80.2016 11.5033 80.6603 12.5104 81.0309 13.3741C81.4248 14.6131 81.8901 16.1512 81.7373 18.0977C81.5841 20.0499 80.8035 22.4602 78.6027 25.3958L78.6 25.3994L75.6144 29.2378Z" fill="black"/>
<path d="M72.5 21.6994C70.5 19.2994 67 18.3987 64.5 18.6994C62 19 60.7137 19.6432 59 20.5C57 21.5 54 24.5 52 24.5C56.5 27.6667 59.4 30.8994 63 31.6994C66.6 32.4994 69 30.1994 72 29.1994C73.5 29.1994 75.1 29.3994 75.5 30.1994" stroke="black"/>
<path d="M71.5698 19.1231C65.3861 19.0191 58.3541 10.8387 61.1317 4.336C68.8938 4.34529 74.0887 13.5863 71.5698 19.1231Z" stroke="black"/>
<path d="M27 1.19934C27.3333 3.53267 27 12.6993 19.5 22.1993" stroke="black"/>
<path d="M16.793 27.4439C16.793 27.4439 18 26.1994 20 25.6994C22 25.1994 23 25.1993 24.5 25.1993C26 25.1993 27.5 25.6993 27.5 25.6993" stroke="black" stroke-linecap="round"/>
<path d="M63.6675 25.7522C63.6675 25.7522 65.288 25.136 67.3116 25.5301C69.3351 25.9242 70.241 26.3477 71.5999 26.9829C72.9587 27.6182 74.1058 28.7064 74.1058 28.7064" stroke="black" stroke-linecap="round"/>
<path d="M9.53389 86.2197L8.78661 85.4724C8.95736 85.2133 9.06885 84.9471 9.12108 84.6739C9.17531 84.4027 9.17933 84.1336 9.13313 83.8664C9.09094 83.5992 9.00356 83.3431 8.87098 83.098C8.73839 82.8529 8.56965 82.6279 8.36475 82.423C7.99111 82.0494 7.55821 81.8053 7.06605 81.6908C6.57589 81.5783 6.05761 81.6165 5.51121 81.8053C4.96682 81.9962 4.42745 82.3588 3.8931 82.8931C3.35876 83.4275 2.99616 83.9668 2.80533 84.5112C2.6165 85.0576 2.57833 85.5759 2.69082 86.066C2.80533 86.5582 3.0494 86.9911 3.42304 87.3648C3.62794 87.5697 3.85293 87.7384 4.09801 87.871C4.34308 88.0036 4.5982 88.0919 4.86337 88.1361C5.13255 88.1803 5.40274 88.1753 5.67393 88.1211C5.94914 88.0668 6.21531 87.9553 6.47244 87.7866L7.21972 88.5339C6.84809 88.793 6.4634 88.9728 6.06565 89.0733C5.6679 89.1737 5.27116 89.2008 4.87542 89.1546C4.48169 89.1064 4.10202 88.9899 3.73642 88.8051C3.37282 88.6223 3.03534 88.3752 2.72397 88.0638C2.19766 87.5375 1.85816 86.9409 1.70549 86.274C1.55282 85.607 1.59601 84.919 1.83506 84.2099C2.07411 83.5008 2.51907 82.8208 3.16993 82.1699C3.82079 81.5191 4.50077 81.0741 5.20989 80.8351C5.91901 80.596 6.60703 80.5528 7.27396 80.7055C7.94089 80.8582 8.53751 81.1977 9.06382 81.724C9.37519 82.0353 9.62228 82.3728 9.80508 82.7364C9.98989 83.102 10.1054 83.4827 10.1516 83.8784C10.1998 84.2722 10.1737 84.6679 10.0733 85.0657C9.97483 85.4614 9.79504 85.8461 9.53389 86.2197Z" fill="black"/>
<path d="M11 97.0753L16.1093 90L16.9661 90.6187L14.6909 93.7694L18.4634 96.4937L20.7387 93.343L21.5955 93.9617L16.4861 101.037L15.6294 100.418L17.9146 97.2538L14.142 94.5295L11.8568 97.694L11 97.0753Z" fill="black"/>
<path d="M27.0446 105.598L26 105.228L31.9298 98.0679L32.9583 98.4315L33.0713 107.728L32.0266 107.359L32.0161 99.5628L31.9518 99.5401L27.0446 105.598ZM28.5664 102.52L32.7771 104.008L32.4646 104.892L28.254 103.404L28.5664 102.52Z" fill="black"/>
<path d="M41.8068 100H43.0171L45.4375 104.074H45.5398L47.9602 100H49.1705L46.0171 105.131V108.727H44.9602V105.131L41.8068 100Z" fill="black"/>
<path d="M60.224 97.5804L61.2084 97.1959L63.3103 102.578C63.5274 103.134 63.5901 103.682 63.4987 104.22C63.4088 104.756 63.1761 105.242 62.8006 105.678C62.424 106.112 61.9169 106.453 61.2791 106.702C60.6414 106.951 60.0371 107.044 59.4663 106.98C58.8944 106.914 58.3927 106.715 57.9613 106.383C57.5314 106.047 57.208 105.602 56.991 105.046L54.8891 99.6637L55.8735 99.2792L57.9444 104.582C58.0994 104.979 58.3247 105.299 58.6203 105.54C58.9148 105.779 59.2581 105.924 59.6502 105.975C60.0439 106.022 60.467 105.958 60.9195 105.781C61.372 105.604 61.7269 105.365 61.9842 105.063C62.2405 104.759 62.3947 104.42 62.4468 104.046C62.5006 103.668 62.4499 103.28 62.2949 102.884L60.224 97.5804Z" fill="black"/>
<path d="M74.8016 101.81L73.8834 102.43L71.6559 93.4035L72.56 92.7931L80.0993 98.2331L79.1811 98.8531L72.9088 94.2236L72.8523 94.2617L74.8016 101.81ZM73.2331 98.7555L76.9344 96.2565L77.459 97.0335L73.7577 99.5325L73.2331 98.7555Z" fill="black"/>
<path d="M86.8935 81L93.0646 87.1711L92.3414 87.8943L84.1334 86.4118L84.0731 86.472L88.9184 91.3173L88.1711 92.0646L82 85.8935L82.7232 85.1703L90.9553 86.6528L91.0156 86.5926L86.1583 81.7352L86.8935 81Z" fill="black"/>
<path d="M9.5 62.1993C20 63.6993 37 77.1993 41 88.1993" stroke="black"/>
<path d="M9.5 61.1993C29.5 62.1993 44.5 71.6994 60 86.1994M9 61C9.54007 61 17.5868 60.3589 25.5 61.6994C39.5651 64.0819 60.5807 70.42 70.5 79.6994" stroke="black"/>
</svg>
