<svg width="43" height="51" viewBox="0 0 43 51" fill="none" xmlns="http://www.w3.org/2000/svg">
<path d="M4.15895 7.02212C4.38997 6.32905 4.85202 5.40496 4.85202 5.40496C4.85202 5.40496 5.54509 5.17394 6.93122 6.7911C7.85531 8.17723 8.08633 8.8703 8.08633 10.2564C8.08633 11.6426 7.39326 12.7977 7.39326 12.7977L5.54508 11.6426L4.62099 10.7185L4.15895 9.56337C4.15895 9.56337 3.92793 8.63927 4.15895 7.02212Z" fill="#2A9D8F"/>
<path d="M36.0401 12.3361C35.578 13.0292 34.8357 13.6013 34.8357 13.6013C34.8357 13.6013 34.1282 13.4193 33.8412 11.3088C33.817 9.64305 33.999 8.93552 34.751 7.77114C35.5031 6.60676 36.9642 5.86746 36.9642 5.86746C36.9642 5.86746 37.37 6.21703 37.6572 6.79155C37.9445 7.36608 37.9127 7.94666 37.9127 7.94666L37.9127 9.26315L37.4262 10.4879C37.4262 10.4879 36.9399 10.8982 36.0401 12.3361Z" fill="#2A9D8F"/>
<path d="M10.3966 13.7219C9.01046 13.0288 8.31739 13.0288 7.62431 12.5668C8.77944 11.4117 9.01045 10.9496 10.8586 10.4876C12.706 10.2502 14.324 10.7186 15.8528 12.1711C17.3815 13.6235 17.7893 14.1839 17.7893 14.1839L15.7101 14.1839L14.555 14.415L13.1689 14.415C13.1689 14.415 11.7827 14.415 10.3966 13.7219Z" fill="#2A9D8F"/>
<path d="M27.7231 14.1844C26.2571 13.623 25.6439 12.3737 24.9509 12.0131C25.8431 10.6447 27.4927 10.5352 28.1852 10.3959C29.1093 10.2101 31.1885 10.3959 32.7 11.1598C34.2115 11.9236 34.4228 13.0293 34.4228 13.0293L33.9607 13.4913L33.0367 13.4913L32.1126 13.9534L30.4954 14.6465C30.4954 14.6465 29.2224 14.5769 27.7231 14.1844Z" fill="#2A9D8F"/>
<path d="M9.0104 28.8922L14.3239 30.5863L16.8652 31.7415L19.4064 33.3586L23.5648 36.3619L27.4922 39.8272L25.413 40.2893L23.5648 40.5203L21.4856 40.7513L18.9444 40.5203L17.0962 37.286L14.3239 34.5137L11.0896 31.5104L7.39325 29.6623L4.15894 28.415L9.0104 28.8922Z" fill="#2A9D8F"/>
<path d="M30.7266 31.419L31.8817 29.8939L33.4988 28.7388L35.116 27.8147L37.1952 26.8906H37.6572L37.4262 27.3527L36.0401 28.5078L34.885 30.1249L34.1919 31.5111L33.4988 33.1282L30.7266 31.419Z" fill="#2A9D8F"/>
<path d="M4.15894 28.0457C6.8542 27.5837 9.47245 26.8906 14.5549 26.8906C19.1754 27.1216 21.9477 27.7322 25.413 28.9698C28.6473 30.1249 33.9608 33.3592 34.8849 34.0523" stroke="#2A9D8F" stroke-width="0.462045"/>
<path d="M27.4922 29.8934C28.4163 28.6462 31.0998 27.7556 32.3437 27.3522C34.6539 26.6591 35.7203 26.6005 38.1192 26.4281" stroke="#2A9D8F" stroke-width="0.462045"/>
<path d="M30.4955 31.4192C32.1126 29.34 35.1609 27.2544 37.8882 26.6599" stroke="#2A9D8F" stroke-width="0.462045"/>
<path d="M33.7297 33.2676C34.4228 30.7263 35.5779 28.5082 38.1191 26.891" stroke="#2A9D8F" stroke-width="0.462045"/>
<path fill-rule="evenodd" clip-rule="evenodd" d="M2.11796 13.1298C1.98318 13.315 1.85463 13.5801 1.84895 13.8047C1.84623 13.9126 1.87177 14.0002 1.92807 14.071C1.98535 14.1431 2.09367 14.2216 2.30081 14.2738C2.43119 14.3066 2.50842 14.2887 2.55324 14.2658C2.59961 14.242 2.63953 14.1984 2.66814 14.1309C2.69726 14.0622 2.71027 13.9778 2.70531 13.8951C2.70023 13.8103 2.67763 13.747 2.65562 13.7138L3.04083 13.4586C3.11945 13.5773 3.15803 13.7256 3.16653 13.8674C3.17515 14.0113 3.15414 14.1684 3.0935 14.3113C3.03234 14.4555 2.92675 14.5937 2.76371 14.6771C2.59912 14.7613 2.40304 14.7759 2.18806 14.7218C1.91218 14.6524 1.7035 14.531 1.56644 14.3586C1.4284 14.185 1.38223 13.984 1.38706 13.7931C1.39634 13.4255 1.59369 13.06 1.75729 12.8404L1.76709 12.8272L1.77865 12.8156C2.13434 12.4576 2.60904 12.3202 3.05339 12.3374C3.4943 12.3544 3.93047 12.5245 4.21969 12.8156L4.23125 12.8273L4.24105 12.8404C4.47974 13.1607 4.63062 13.4564 4.6965 13.7548C4.76303 14.0562 4.73896 14.3426 4.65542 14.6369C4.57329 14.9262 4.43205 15.2283 4.26153 15.562C4.1948 15.6926 4.1243 15.8268 4.05001 15.9681C3.92962 16.1971 3.79928 16.4451 3.65891 16.7277C2.92352 18.2081 2.32385 20.7554 2.24896 23.62C2.17414 26.4818 2.6239 29.6322 3.96081 32.3236C6.63577 37.7085 13.1132 42.1378 21.4857 42.1378C29.8362 42.1378 34.987 36.8164 36.4721 34.7236C36.494 34.6928 36.5161 34.6616 36.5385 34.6301C37.285 33.5793 38.2806 32.1781 38.9289 29.8943C39.5967 27.5417 39.8997 24.2367 39.1509 19.4055C38.8544 18.2158 38.4352 17.2473 38.0749 16.497C37.9845 16.3087 37.8979 16.1343 37.8175 15.973L37.7996 15.937C37.7264 15.7899 37.6582 15.653 37.5984 15.5282C37.4732 15.2668 37.3696 15.0289 37.3383 14.8394C37.2824 14.5022 37.2961 13.9897 37.5373 13.5509C37.7897 13.0918 38.2732 12.7474 39.0757 12.7474C39.874 12.7474 40.3429 13.0898 40.5457 13.527C40.643 13.737 40.6734 13.9584 40.6558 14.153C40.6388 14.3411 40.5737 14.5332 40.4471 14.6606C40.0142 15.0964 39.257 15.0082 38.6099 14.3568L38.9376 14.0311C39.4981 14.5952 39.9485 14.5069 40.1193 14.335C40.1437 14.3105 40.1843 14.2367 40.1956 14.1114C40.2063 13.9927 40.1876 13.8532 40.1265 13.7213C40.0122 13.4748 39.7264 13.2095 39.0757 13.2095C38.429 13.2095 38.1075 13.4728 37.9422 13.7734C37.7659 14.0942 37.7493 14.4934 37.7941 14.7639C37.813 14.8783 37.8856 15.0582 38.0151 15.3286C38.0734 15.4503 38.1401 15.5843 38.2141 15.7327L38.2311 15.767C38.3115 15.9285 38.3995 16.1055 38.4914 16.297C38.8597 17.064 39.2946 18.0674 39.6018 19.3041L39.6042 19.3141L39.6058 19.3243C40.3645 24.2115 40.0636 27.5887 39.3734 30.0204C38.7032 32.3813 37.6695 33.8361 36.9177 34.8941C36.8945 34.9268 36.8715 34.9591 36.8489 34.991C35.315 37.1525 30.0412 42.5998 21.4857 42.5998C12.952 42.5998 6.30616 38.0836 3.54701 32.5291C2.16686 29.7507 1.71094 26.5198 1.78707 23.608C1.86312 20.699 2.47104 18.0804 3.24511 16.5221C3.38648 16.2375 3.52333 15.9771 3.64633 15.7429C3.71986 15.603 3.78844 15.4724 3.85008 15.3518C4.01919 15.0208 4.14211 14.7532 4.21093 14.5107C4.27834 14.2732 4.292 14.0658 4.24532 13.8544C4.19874 13.6434 4.08832 13.4114 3.88076 13.1302C3.68602 12.9412 3.37302 12.8121 3.03552 12.7991C2.70019 12.7861 2.36501 12.8883 2.11796 13.1298Z" fill="#2A9D8F"/>
<path fill-rule="evenodd" clip-rule="evenodd" d="M12.4941 0L12.6466 0.167728C13.0689 0.632221 13.5034 1.57078 13.7667 2.62139C14.0312 3.67704 14.1355 4.89501 13.8537 5.92845C13.6701 6.60142 13.3719 7.25732 13.0297 7.80569C12.6899 8.35022 12.2956 8.80661 11.9107 9.06318C11.5741 9.28762 11.4346 9.43794 11.3743 9.53849C11.3617 9.55941 11.3521 9.57878 11.3447 9.59768C12.09 9.53964 12.9002 9.57229 13.7088 9.74835C15.7373 10.19 17.0938 11.4937 18.0446 14.5364L17.6175 14.7087C17.6175 14.7087 17.6146 14.703 17.6044 14.691C17.5945 14.6793 17.5795 14.6641 17.5582 14.6465C17.5154 14.6113 17.4501 14.5691 17.3566 14.5284C17.1698 14.4472 16.875 14.3743 16.438 14.3743C15.8699 14.3743 15.6123 14.4726 14.7729 14.5304C14.5891 14.5431 14.4084 14.5559 14.2358 14.5681C13.6309 14.6108 13.1257 14.6465 12.9377 14.6465C12.6833 14.6465 12.0865 14.5852 11.38 14.4086C10.6721 14.2316 9.836 13.9345 9.1132 13.4526C8.8003 13.244 8.52766 13.1744 8.29492 13.1773C8.0603 13.1803 7.8473 13.2573 7.65642 13.3718C7.3549 13.5527 7.14564 13.7955 6.995 13.9703C6.95119 14.0211 6.91234 14.0662 6.87762 14.1023C5.98189 15.4441 5.29691 17.0743 4.81275 18.6421C4.21063 20.5918 3.92783 22.416 3.92784 23.4254C3.92784 23.4616 3.92777 23.5005 3.9277 23.5418C3.92569 24.6829 3.92036 27.7165 5.26744 30.9605C6.65873 34.311 9.49697 37.8962 15.3136 39.8373C21.0354 41.3234 25.3674 40.5762 28.5499 39.0986C31.7386 37.6182 33.7906 35.3963 34.9327 33.9115L34.936 33.9073L34.9395 33.9032C36.1743 32.4438 37.6042 29.314 37.9759 25.6258C38.3468 21.9457 37.6614 17.7372 34.7055 14.0991L34.687 14.0764L34.6748 14.0497C33.3982 11.2645 33.1437 9.76849 33.3574 8.48645C33.4629 7.85322 33.6813 7.28314 33.922 6.65821L33.9319 6.63255C34.1711 6.01118 34.4365 5.32206 34.6607 4.4255C34.7501 4.06797 34.8538 3.78612 34.9735 3.57486C35.0924 3.36498 35.2381 3.20567 35.42 3.12574C35.61 3.04225 35.8029 3.06119 35.9762 3.13677C36.1433 3.20966 36.2981 3.33682 36.4387 3.48519C36.7202 3.78236 36.9917 4.21584 37.2326 4.66469C37.4753 5.11708 37.6949 5.60042 37.8694 6.00769L37.8738 6.01798L37.8772 6.02864C38.062 6.60946 38.306 7.39717 38.2274 8.39812C38.1486 9.40169 37.7482 10.5977 36.6868 12.0129L36.6844 12.0161L35.1792 13.9512C38.1324 17.6726 38.8107 21.9496 38.4356 25.6721C38.0568 29.431 36.6012 32.652 35.2957 34.1975C34.127 35.716 32.0214 37.9962 28.7445 39.5177C25.4598 41.0427 21.0153 41.7972 15.1898 40.2826L15.1822 40.2806L15.1748 40.2781C9.21433 38.2913 6.27885 34.601 4.84072 31.1377C3.45766 27.807 3.46349 24.696 3.46564 23.5448C3.46572 23.5023 3.4658 23.4624 3.4658 23.4254C3.46578 22.3555 3.76053 20.4834 4.37128 18.5057C4.95316 16.6216 5.82978 14.6153 7.03454 13.1022C6.36709 12.7408 5.55315 12.2091 4.91957 11.5756C4.54767 11.2037 3.83034 10.2889 3.71487 8.8607C3.599 7.42756 4.09257 5.52136 6.06114 3.17783L6.21276 2.99733L6.39016 3.15256C7.54143 4.15992 8.29833 5.25267 8.73304 6.35754C8.75715 6.14233 8.75206 5.90924 8.74606 5.63505C8.74561 5.61435 8.74515 5.59342 8.7447 5.57225C8.73297 5.0208 8.73235 4.3539 9.02218 3.48439C9.32077 2.58862 10.018 1.88025 10.6905 1.33873C11.0291 1.06612 11.3685 0.830334 11.6575 0.631622C11.6772 0.618058 11.6967 0.604705 11.7158 0.591559C11.9833 0.407803 12.1919 0.26447 12.3235 0.149269L12.4941 0ZM8.98382 7.12503C9.10297 7.58038 9.17041 8.03491 9.19114 8.48352C9.21676 9.0379 9.17099 9.58143 9.0644 10.1044C9.54729 9.90978 10.1675 9.74154 10.8634 9.64854C10.8727 9.54889 10.8997 9.43136 10.9781 9.30077C11.091 9.11255 11.2981 8.91633 11.6545 8.67873C11.9627 8.47326 12.3153 8.07779 12.6377 7.56109C12.9577 7.04822 13.237 6.4335 13.4079 5.80688C13.661 4.87896 13.5727 3.74821 13.3185 2.7337C13.0955 1.84389 12.7545 1.08093 12.4401 0.64683C12.3094 0.744446 12.1539 0.851234 11.9883 0.964909C11.9655 0.980599 11.9424 0.99642 11.9193 1.01237C11.6307 1.21072 11.304 1.43794 10.9803 1.69861C10.3283 2.22364 9.71638 2.8629 9.46052 3.6305C9.1959 4.42435 9.19528 5.02806 9.20664 5.56242C9.20732 5.59411 9.20806 5.62574 9.2088 5.65732C9.22037 6.15218 9.23165 6.63467 8.98594 7.12609L8.98382 7.12503ZM8.92204 10.6746C8.69521 11.4401 8.33834 12.1505 7.88795 12.7721C8.01361 12.7378 8.14748 12.7171 8.28907 12.7153C8.62666 12.711 8.98933 12.8147 9.3695 13.0681C10.0328 13.5104 10.8139 13.7908 11.4921 13.9603C12.1718 14.1303 12.7301 14.1845 12.9377 14.1845C13.1078 14.1845 13.5846 14.1508 14.1827 14.1086C14.3598 14.0961 14.5476 14.0828 14.7411 14.0695C15.5766 14.0119 15.851 13.9123 16.438 13.9123C16.8313 13.9123 17.1415 13.9652 17.3812 14.0441C16.4197 11.6188 15.3464 10.5778 13.6105 10.1998C11.7356 9.7916 9.85178 10.2055 8.92204 10.6746ZM7.33342 12.7382C8.24241 11.5989 8.80318 10.0971 8.72959 8.50485C8.65568 6.90571 7.94107 5.19766 6.26289 3.6588C4.47941 5.84844 4.07461 7.57676 4.17541 8.82346C4.27941 10.1097 4.92512 10.9277 5.24628 11.2488C5.86326 11.8658 6.67667 12.39 7.33342 12.7382ZM34.9377 13.5092C33.813 10.9788 33.6307 9.65698 33.8132 8.5624C33.9098 7.98276 34.1101 7.45549 34.3532 6.82424L34.3648 6.79402C34.6039 6.17305 34.8778 5.4618 35.1089 4.53757C35.1928 4.20203 35.284 3.96408 35.3755 3.80264C35.4677 3.63981 35.5495 3.57351 35.6058 3.54876C35.6541 3.52757 35.7102 3.52487 35.7915 3.56029C35.8788 3.5984 35.9839 3.67699 36.1033 3.80296C36.3415 4.05447 36.5898 4.444 36.8254 4.88315C37.0572 5.31504 37.2691 5.78038 37.4403 6.17943C37.6224 6.75189 37.8374 7.46258 37.7667 8.36195C37.6959 9.26394 37.3353 10.3776 36.3184 11.734L36.3172 11.7356L34.9377 13.5092Z" fill="#2A9D8F"/>
<path d="M33.4988 10.0262C32.5747 8.91729 30.9575 8.50116 29.8024 8.64007C28.6473 8.77898 28.053 9.07615 27.2612 9.47205C26.3371 9.9341 24.9509 11.3202 24.0269 11.3202C26.1061 12.7834 27.446 14.277 29.1093 14.6466C30.7727 15.0163 31.8816 13.9536 33.2677 13.4915C33.9608 13.4915 34.7001 13.5839 34.8849 13.9536" stroke="#2A9D8F" stroke-width="0.462045"/>
<path d="M33.069 8.83519C30.2119 8.78713 26.9628 5.00742 28.2462 2.0029C31.8326 2.0072 34.2329 6.27697 33.069 8.83519Z" stroke="#2A9D8F" stroke-width="0.462045"/>
<path d="M12.4757 0.553711C12.6297 1.63181 12.4757 5.86722 9.01038 10.2566" stroke="#2A9D8F" stroke-width="0.462045"/>
<path d="M7.75965 12.6804C7.75965 12.6804 8.31735 12.1054 9.24144 11.8744C10.1655 11.6433 10.6276 11.6433 11.3206 11.6433C12.0137 11.6433 12.7068 11.8743 12.7068 11.8743" stroke="#2A9D8F" stroke-width="0.462045" stroke-linecap="round"/>
<path d="M29.4177 11.898C29.4177 11.898 30.1665 11.6133 31.1015 11.7954C32.0364 11.9775 32.455 12.1732 33.0828 12.4667C33.7107 12.7602 34.2407 13.263 34.2407 13.263" stroke="#2A9D8F" stroke-width="0.462045" stroke-linecap="round"/>
<path d="M4.4056 39.8378L4.06032 39.4925C4.13921 39.3728 4.19072 39.2498 4.21486 39.1236C4.23992 38.9983 4.24177 38.8739 4.22043 38.7504C4.20093 38.627 4.16056 38.5087 4.0993 38.3954C4.03804 38.2822 3.96008 38.1782 3.8654 38.0836C3.69276 37.9109 3.49274 37.7981 3.26534 37.7452C3.03887 37.6933 2.7994 37.7109 2.54694 37.7981C2.29541 37.8863 2.04619 38.0538 1.7993 38.3007C1.55241 38.5476 1.38488 38.7968 1.2967 39.0484C1.20945 39.3008 1.19182 39.5403 1.24379 39.7668C1.2967 39.9942 1.40947 40.1942 1.58211 40.3668C1.67678 40.4615 1.78074 40.5395 1.89397 40.6007C2.00721 40.662 2.12509 40.7028 2.24761 40.7233C2.37198 40.7437 2.49682 40.7414 2.62212 40.7163C2.74928 40.6912 2.87226 40.6397 2.99107 40.5618L3.33635 40.907C3.16464 41.0268 2.98689 41.1098 2.80311 41.1562C2.61934 41.2027 2.43602 41.2152 2.25318 41.1938C2.07126 41.1716 1.89583 41.1177 1.7269 41.0323C1.55891 40.9479 1.40297 40.8337 1.25911 40.6898C1.01593 40.4467 0.859069 40.171 0.788528 39.8628C0.717987 39.5547 0.737943 39.2368 0.848395 38.9092C0.958847 38.5815 1.16444 38.2673 1.46516 37.9666C1.76589 37.6659 2.08007 37.4603 2.40772 37.3498C2.73536 37.2394 3.05326 37.2194 3.36141 37.29C3.66956 37.3605 3.94522 37.5174 4.1884 37.7605C4.33227 37.9044 4.44643 38.0603 4.5309 38.2283C4.61629 38.3973 4.66966 38.5732 4.69101 38.756C4.71328 38.9379 4.70122 39.1208 4.65481 39.3046C4.60933 39.4874 4.52626 39.6651 4.4056 39.8378Z" fill="#2A9D8F"/>
<path d="M5.08298 44.8531L7.44373 41.584L7.83959 41.8699L6.78833 43.3256L8.53142 44.5844L9.58269 43.1286L9.97856 43.4145L7.61782 46.6836L7.22195 46.3977L8.27783 44.9356L6.53473 43.6768L5.47885 45.139L5.08298 44.8531Z" fill="#2A9D8F"/>
<path d="M12.4964 48.7908L12.0137 48.6202L14.7535 45.3118L15.2288 45.4798L15.281 49.7751L14.7983 49.6045L14.7934 46.0025L14.7637 45.992L12.4964 48.7908ZM13.1995 47.3687L15.145 48.0564L15.0007 48.4648L13.0552 47.7771L13.1995 47.3687Z" fill="#2A9D8F"/>
<path d="M19.3171 46.2041H19.8763L20.9947 48.0864H21.0419L22.1603 46.2041H22.7195L21.2625 48.5747V50.2365H20.7742V48.5747L19.3171 46.2041Z" fill="#2A9D8F"/>
<path d="M27.8267 45.0862L28.2815 44.9086L29.2527 47.3956C29.353 47.6524 29.382 47.9053 29.3397 48.1543C29.2982 48.4016 29.1907 48.6261 29.0172 48.8277C28.8432 49.0281 28.6089 49.1858 28.3142 49.3009C28.0195 49.416 27.7403 49.4588 27.4766 49.4293C27.2123 49.3986 26.9805 49.3066 26.7812 49.1534C26.5826 48.9984 26.4331 48.7926 26.3329 48.5358L25.3617 46.0488L25.8165 45.8712L26.7734 48.3215C26.845 48.5049 26.9491 48.6524 27.0857 48.7639C27.2218 48.8743 27.3804 48.9413 27.5615 48.9649C27.7434 48.9869 27.9389 48.9571 28.148 48.8754C28.3571 48.7938 28.5211 48.6832 28.64 48.5438C28.7584 48.4031 28.8296 48.2464 28.8537 48.0735C28.8785 47.8989 28.8551 47.72 28.7835 47.5365L27.8267 45.0862Z" fill="#2A9D8F"/>
<path d="M34.5622 47.0399L34.1379 47.3264L33.1087 43.1559L33.5265 42.8738L37.01 45.3874L36.5857 45.6738L33.6876 43.5348L33.6615 43.5524L34.5622 47.0399ZM33.8375 45.6287L35.5477 44.4741L35.79 44.8331L34.0799 45.9877L33.8375 45.6287Z" fill="#2A9D8F"/>
<path d="M40.1492 37.4255L43.0005 40.2768L42.6664 40.611L38.8739 39.926L38.8461 39.9538L41.0848 42.1926L40.7395 42.5379L37.8882 39.6865L38.2223 39.3524L42.026 40.0374L42.0538 40.0095L39.8095 37.7652L40.1492 37.4255Z" fill="#2A9D8F"/>
<path d="M4.39001 28.7383C9.24148 29.4313 17.0962 35.6689 18.9444 40.7514" stroke="#2A9D8F" stroke-width="0.462045"/>
<path d="M4.38996 28.2762C13.6308 28.7382 20.5615 33.1277 27.7232 39.8273M4.15894 28.1841C4.40847 28.1841 8.12641 27.8879 11.7827 28.5072C18.2814 29.6081 27.9915 32.5365 32.5747 36.824" stroke="#2A9D8F" stroke-width="0.462045"/>
</svg>
