<svg width="94" height="46" viewBox="0 0 94 46" fill="none" xmlns="http://www.w3.org/2000/svg">
<path d="M67.4 24.775C67.3667 24.775 67.3167 24.775 67.25 24.775C67.0667 24.775 66.8667 24.7833 66.65 24.8C66.4333 24.8167 66.2917 24.8917 66.225 25.025C65.8583 25.0583 65.4833 25.025 65.1 24.925C64.7333 24.825 64.3583 24.7083 63.975 24.575C63.775 24.5083 63.5667 24.4417 63.35 24.375C63.15 24.3083 62.9417 24.25 62.725 24.2C62.725 24.1 62.6917 24.0083 62.625 23.925C62.575 23.825 62.55 23.775 62.55 23.775C62.45 23.8083 62.375 23.8167 62.325 23.8C62.275 23.7667 62.2333 23.7333 62.2 23.7C62.1667 23.6667 62.125 23.6417 62.075 23.625C62.025 23.6083 61.9583 23.6083 61.875 23.625C61.8583 23.5417 61.8333 23.4833 61.8 23.45C61.7667 23.4167 61.7417 23.3833 61.725 23.35C61.6417 23.2833 61.6083 23.2 61.625 23.1C60.5917 21.9833 59.6083 20.825 58.675 19.625C57.7583 18.4083 56.7583 17.2667 55.675 16.2C55.475 16.4333 55.2917 16.6833 55.125 16.95C54.9583 17.2 54.7833 17.4583 54.6 17.725C55.0833 18.0417 55.525 18.3667 55.925 18.7C56.325 19.0333 56.525 19.5167 56.525 20.15C56.525 20.4333 56.475 20.75 56.375 21.1C56.525 21.0667 56.6667 21.05 56.8 21.05C56.95 21.0333 57.0917 21.025 57.225 21.025C57.8917 21.0417 58.4917 21.2167 59.025 21.55C59.575 21.8667 60.0833 22.1917 60.55 22.525C60.25 22.625 59.9167 22.6917 59.55 22.725C59.2 22.7417 58.8333 22.75 58.45 22.75C58.1667 22.7667 57.8667 22.7833 57.55 22.8C57.25 22.8 56.9417 22.825 56.625 22.875C56.4083 23.375 56.3083 23.9417 56.325 24.575C56.3417 25.2083 56.3917 25.8583 56.475 26.525C56.4917 26.6583 56.5 26.7583 56.5 26.825C56.5667 27.3917 56.6 27.95 56.6 28.5C56.6167 29.05 56.55 29.5417 56.4 29.975C56.2667 30.425 55.9917 30.8 55.575 31.1C55.125 31.0833 54.7167 30.9667 54.35 30.75C53.9833 30.5333 53.6333 30.2583 53.3 29.925C52.9833 29.6083 52.6583 29.3 52.325 29C52.0917 28.7667 51.8583 28.5833 51.625 28.45C51.4083 28.3 51.3 28.225 51.3 28.225C51.5167 28.2083 51.75 28.225 52 28.275C52.2667 28.3083 52.5333 28.35 52.8 28.4C53.0333 28.45 53.2583 28.4917 53.475 28.525C53.6917 28.5583 53.8917 28.575 54.075 28.575C54.2917 28.275 54.4417 27.9667 54.525 27.65C54.625 27.3167 54.6833 26.9667 54.7 26.6C54.7167 26.25 54.7167 25.9 54.7 25.55C54.6833 25.1833 54.6583 24.8 54.625 24.4C54.6083 24.2 54.5917 24 54.575 23.8C54.575 23.5833 54.5667 23.3667 54.55 23.15C54.2 23.2167 53.7833 23.2667 53.3 23.3C52.8333 23.3333 52.3917 23.3083 51.975 23.225C51.6917 23.1583 51.4333 23.0583 51.2 22.925C50.9833 22.7917 50.8167 22.6167 50.7 22.4C50.55 22.4667 50.3667 22.6083 50.15 22.825C49.9333 23.0417 49.7167 23.175 49.5 23.225C49.5 23.1917 49.55 23.1333 49.65 23.05C49.75 22.95 49.8667 22.85 50 22.75C50.1833 22.6167 50.35 22.4833 50.5 22.35C50.6667 22.2167 50.7333 22.1167 50.7 22.05C50.3333 22.2833 49.975 22.5667 49.625 22.9C49.275 23.2167 48.9333 23.5417 48.6 23.875C48.0167 24.4583 47.4333 25.0167 46.85 25.55C46.2667 26.0667 45.6 26.4167 44.85 26.6C44.75 26.6333 44.6833 26.5917 44.65 26.475C44.6167 26.3917 44.5667 26.35 44.5 26.35C44.4 26.45 44.2583 26.475 44.075 26.425C43.8917 26.375 43.7083 26.3083 43.525 26.225C43.4583 26.2083 43.3917 26.1917 43.325 26.175C43.275 26.1417 43.225 26.1167 43.175 26.1C43.1917 26 43.275 25.9667 43.425 26C43.575 26.0333 43.6583 26.0667 43.675 26.1C43.9083 26.0167 44.1333 25.9 44.35 25.75C44.5667 25.6 44.7417 25.475 44.875 25.375C44.9417 25.325 45.0083 25.2833 45.075 25.25C45.1417 25.2167 45.2083 25.1833 45.275 25.15C45.4583 25.0333 45.6083 24.925 45.725 24.825C45.8583 24.725 45.9083 24.575 45.875 24.375C45.925 24.3417 45.975 24.3083 46.025 24.275C46.0917 24.225 46.1667 24.1833 46.25 24.15C46.4 24.0667 46.5417 23.975 46.675 23.875C46.825 23.7583 46.8917 23.6417 46.875 23.525C47.2917 23.3083 47.6667 22.9917 48 22.575C48.35 22.1583 48.7 21.7333 49.05 21.3C49.4 20.8667 49.8083 20.525 50.275 20.275C50.225 20.175 50.2 20.0833 50.2 20C50.2 19.9 50.2 19.85 50.2 19.85C50.3833 19.95 50.5167 19.9417 50.6 19.825C50.7 19.7083 50.7833 19.5833 50.85 19.45C50.85 19.4333 50.85 19.425 50.85 19.425C50.7833 19.425 50.725 19.4583 50.675 19.525C50.625 19.575 50.6 19.6 50.6 19.6C50.65 19.4667 50.7917 19.225 51.025 18.875C51.275 18.5083 51.55 18.1083 51.85 17.675C52.1667 17.225 52.4667 16.8 52.75 16.4C53.0333 16 53.2333 15.6833 53.35 15.45C53.35 15.3833 53.3333 15.325 53.3 15.275C53.2833 15.2083 53.25 15.1417 53.2 15.075C53.1667 14.9917 53.125 14.9083 53.075 14.825C53.025 14.7417 53 14.6333 53 14.5C53.0333 14.35 53.1167 14.2583 53.25 14.225C53.3833 14.1917 53.4917 14.1417 53.575 14.075C53.575 14.0083 53.5167 13.9833 53.4 14C53.3 14.0167 53.2 14.0333 53.1 14.05C53.05 14.0667 53.0167 14.075 53 14.075C52.8333 14.3917 52.7083 14.675 52.625 14.925C52.5583 15.175 52.4083 15.4333 52.175 15.7C51.8583 15.6 51.6167 15.4167 51.45 15.15C51.2833 14.8833 51.1333 14.5917 51 14.275C50.5833 14.3583 50.1667 14.475 49.75 14.625C49.3333 14.7583 48.9167 14.95 48.5 15.2C47.9667 14.9333 47.475 14.575 47.025 14.125C46.575 13.6583 46.3417 13.0917 46.325 12.425C46.5917 12.2917 46.8583 12.2583 47.125 12.325C47.3917 12.3917 47.6583 12.4667 47.925 12.55C48.1083 12.6167 48.2833 12.6833 48.45 12.75C48.6333 12.8 48.8167 12.825 49 12.825C49.1 12.825 49.1667 12.7917 49.2 12.725C49.25 12.6417 49.3167 12.5917 49.4 12.575C49.5167 12.5417 49.6333 12.5333 49.75 12.55C49.8667 12.5667 49.9917 12.5833 50.125 12.6C50.225 12.6333 50.325 12.6583 50.425 12.675C50.5417 12.675 50.65 12.6667 50.75 12.65C50.7167 12.2833 50.6167 12.0083 50.45 11.825C50.3 11.6417 50.1333 11.4833 49.95 11.35C49.7667 11.2167 49.6083 11.0333 49.475 10.8C49.475 10.75 49.475 10.7 49.475 10.65C49.475 10.5833 49.475 10.5167 49.475 10.45C49.4583 10.2167 49.4667 10.0167 49.5 9.85C49.55 9.66667 49.7083 9.58333 49.975 9.6C50.475 9.63333 50.95 9.775 51.4 10.025C51.8667 10.275 52.2167 10.5917 52.45 10.975C52.7 11.3583 52.7417 11.775 52.575 12.225C53.025 12.375 53.5333 12.4417 54.1 12.425C54.6833 12.3917 55.2667 12.35 55.85 12.3C56.2333 12.2667 56.6167 12.2417 57 12.225C57.3833 12.1917 57.7417 12.1833 58.075 12.2C58.225 11.65 58.2667 11.1083 58.2 10.575C58.1333 10.025 58.0083 9.49167 57.825 8.975C58.0583 8.79167 58.2833 8.725 58.5 8.775C58.7333 8.825 58.9583 8.925 59.175 9.075C59.4583 9.275 59.7167 9.53333 59.95 9.85C60.2 10.15 60.4333 10.3917 60.65 10.575C60.6 10.6417 60.575 10.7083 60.575 10.775C60.575 10.825 60.5833 10.875 60.6 10.925C60.6167 11.025 60.6083 11.1083 60.575 11.175C60.2417 11.275 60.075 11.5583 60.075 12.025C60.125 12.025 60.1917 12.025 60.275 12.025C60.8417 11.9917 61.425 11.975 62.025 11.975C62.625 11.975 63.175 12.0417 63.675 12.175C64.0583 12.275 64.3917 12.4333 64.675 12.65C64.975 12.85 65.2 13.1417 65.35 13.525C65.1 13.6917 64.8167 13.8167 64.5 13.9C64.2 13.9667 63.8833 13.9917 63.55 13.975C63.2833 13.975 63.0083 13.9583 62.725 13.925C62.4583 13.875 62.1833 13.8333 61.9 13.8C61.4667 13.7333 61.05 13.6833 60.65 13.65C60.25 13.6167 59.9 13.6417 59.6 13.725C59.5667 13.7917 59.5333 13.8583 59.5 13.925C59.4667 13.9917 59.4333 14.0667 59.4 14.15C59.2833 14.4167 59.15 14.675 59 14.925C58.85 15.175 58.6583 15.3583 58.425 15.475C58.2083 15.5917 57.9333 15.6 57.6 15.5C57.6167 15.4167 57.6333 15.3417 57.65 15.275C57.6667 15.1917 57.6833 15.1167 57.7 15.05C57.7667 14.8333 57.8167 14.6167 57.85 14.4C57.9 14.1667 57.9 13.9417 57.85 13.725C57.2167 13.7417 56.575 13.775 55.925 13.825C55.275 13.8583 54.6583 13.9167 54.075 14C54.075 14 54.2333 14.0667 54.55 14.2C54.8667 14.3333 55.2167 14.4333 55.6 14.5C56.05 15.0167 56.5667 15.4917 57.15 15.925C57.7333 16.3417 58.3583 16.8167 59.025 17.35C59.5083 17.7167 60.0333 18.0917 60.6 18.475C61.1833 18.8583 61.6917 19.1 62.125 19.2C62.5417 19.6667 63.075 20.0167 63.725 20.25C64.375 20.4833 64.9833 20.75 65.55 21.05C65.7833 21.3333 66.0083 21.6167 66.225 21.9C66.4583 22.1667 66.7583 22.3667 67.125 22.5C67.1583 22.5833 67.1917 22.6667 67.225 22.75C67.275 22.8167 67.3167 22.8917 67.35 22.975C67.5 23.2417 67.6083 23.525 67.675 23.825C67.7583 24.125 67.6667 24.4417 67.4 24.775ZM62.5 28.6C62.3 28.7833 62.05 28.9167 61.75 29C61.4667 29.0667 61.2083 29.05 60.975 28.95C60.7417 28.8333 60.5833 28.6083 60.5 28.275C60.4833 28.225 60.4167 28.2 60.3 28.2C60.2333 28.2 60.1833 28.2 60.15 28.2C60.0333 27.8667 59.8833 27.5583 59.7 27.275C59.5333 26.975 59.4333 26.6333 59.4 26.25C59.3833 25.9333 59.2667 25.6583 59.05 25.425C58.85 25.1917 58.6417 24.95 58.425 24.7C58.225 24.4333 58.125 24.1333 58.125 23.8C58.375 23.6667 58.6167 23.6417 58.85 23.725C59.1 23.8083 59.325 23.9417 59.525 24.125C59.7417 24.3083 59.9167 24.4833 60.05 24.65C60.1333 24.6667 60.1833 24.6417 60.2 24.575C60.2167 24.5083 60.225 24.475 60.225 24.475C60.8917 24.875 61.4083 25.4583 61.775 26.225C62.1417 26.975 62.3833 27.7667 62.5 28.6ZM51.7 25.65C51.6333 26.3333 51.375 26.9583 50.925 27.525C50.475 28.0917 50.05 28.6167 49.65 29.1C49.1833 28.85 48.8083 28.525 48.525 28.125C48.2583 27.7083 48.075 27.2417 47.975 26.725C48.6083 26.4417 49.1083 26.0333 49.475 25.5C49.8583 24.95 50.2167 24.3917 50.55 23.825C50.5833 23.7583 50.6333 23.7333 50.7 23.75C50.7833 23.75 50.8417 23.775 50.875 23.825C51.0583 24.1417 51.1917 24.475 51.275 24.825C51.3583 25.1583 51.45 25.475 51.55 25.775C51.6167 25.7917 51.6583 25.775 51.675 25.725C51.6917 25.675 51.7 25.65 51.7 25.65ZM54.525 21.35C54.4417 21.1667 54.3833 20.9167 54.35 20.6C54.3333 20.2667 54.3 19.925 54.25 19.575C54.2 19.2083 54.1 18.9 53.95 18.65C53.7667 18.75 53.6 18.9083 53.45 19.125C53.3 19.325 53.15 19.5167 53 19.7C52.85 19.8833 52.6917 19.9917 52.525 20.025C52.5417 19.9917 52.5667 19.95 52.6 19.9C52.65 19.85 52.7 19.8 52.75 19.75C52.8167 19.7 52.875 19.65 52.925 19.6C52.975 19.5333 52.9833 19.475 52.95 19.425C52.7333 19.5583 52.5333 19.7583 52.35 20.025C52.1667 20.2917 51.9833 20.55 51.8 20.8C51.6167 21.05 51.4167 21.2417 51.2 21.375C50.9833 21.4917 50.9 21.6583 50.95 21.875C51.0167 21.8083 51.1083 21.7 51.225 21.55C51.3417 21.4 51.45 21.325 51.55 21.325C51.55 21.325 51.4917 21.4083 51.375 21.575C51.2583 21.725 51.2 21.825 51.2 21.875C51.7833 21.775 52.3417 21.725 52.875 21.725C53.425 21.725 53.975 21.6 54.525 21.35ZM52.45 20.175C52.5167 20.2583 52.475 20.3833 52.325 20.55C52.1917 20.7 52.05 20.85 51.9 21C51.8 21.1 51.7333 21.1667 51.7 21.2C51.6667 21.1333 51.6917 21.05 51.775 20.95C51.8583 20.85 51.9583 20.7417 52.075 20.625C52.1417 20.5417 52.2083 20.4667 52.275 20.4C52.3583 20.3167 52.4167 20.2417 52.45 20.175ZM92.15 28.55C92.0667 28.8 91.9167 28.9833 91.7 29.1C91.5 29.2333 91.3333 29.4 91.2 29.6C90.8833 29.6167 90.5583 29.7417 90.225 29.975C89.9083 30.225 89.55 30.3667 89.15 30.4C89.0833 30.4 89.0083 30.3917 88.925 30.375C88.8583 30.3583 88.7833 30.3417 88.7 30.325C88.6333 30.3083 88.5667 30.2833 88.5 30.25C88.4333 30.2333 88.3667 30.225 88.3 30.225C87.5167 30.175 86.7333 30.125 85.95 30.075C85.1833 30.0417 84.4583 29.9333 83.775 29.75C83.0917 29.5833 82.4833 29.2917 81.95 28.875C81.4167 28.4583 81 27.85 80.7 27.05C80.9 25.8167 80.9917 24.475 80.975 23.025C80.975 21.5583 80.9167 19.9833 80.8 18.3C80.5833 18.2667 80.4167 18.3333 80.3 18.5C80.1833 18.6667 80.1167 18.8583 80.1 19.075C80.0833 19.2917 80.0917 19.475 80.125 19.625C79.8083 21.1917 79.3167 22.675 78.65 24.075C78 25.4583 77.2083 26.7417 76.275 27.925C76.225 27.9417 76.175 27.925 76.125 27.875C76.0917 27.8583 76.0583 27.85 76.025 27.85C75.9917 27.8833 75.95 27.9417 75.9 28.025C75.5667 28.4417 75.2083 28.85 74.825 29.25C74.4417 29.65 74 29.9333 73.5 30.1C73 30.2667 72.4167 30.2167 71.75 29.95C71.85 29.8 71.85 29.7 71.75 29.65C71.65 29.6 71.5333 29.5583 71.4 29.525C71.3333 29.5083 71.2667 29.4917 71.2 29.475C71.15 29.4583 71.1083 29.4417 71.075 29.425C71.4917 29.1917 71.9167 29.0083 72.35 28.875C72.8 28.725 73.0833 28.5 73.2 28.2C73.3 28.2333 73.3 28.3 73.2 28.4C73.15 28.4667 73.125 28.5167 73.125 28.55C73.6083 28.2333 74.0917 27.7833 74.575 27.2C75.0583 26.6 75.4833 26.0167 75.85 25.45C75.7833 25.3833 75.7083 25.4 75.625 25.5C75.5583 25.5833 75.5 25.6833 75.45 25.8C75.3833 25.8833 75.3417 25.9417 75.325 25.975C75.4417 25.5917 75.6667 25.1917 76 24.775C76.3333 24.3583 76.5667 23.9083 76.7 23.425C76.2 23.1917 75.7333 22.925 75.3 22.625C74.8833 22.325 74.55 21.9417 74.3 21.475C74.0333 21.725 73.8083 22.0167 73.625 22.35C73.4417 22.6833 73.2083 22.9833 72.925 23.25C72.6583 23.5 72.2417 23.6417 71.675 23.675C71.6417 23.6583 71.5917 23.6333 71.525 23.6C71.3417 23.5 71.1667 23.4333 71 23.4C70.8333 23.35 70.625 23.3833 70.375 23.5C71.075 22.7833 71.7 22.0083 72.25 21.175C72.8167 20.325 73.3 19.3917 73.7 18.375C73.6667 18.1917 73.6 18.0417 73.5 17.925C73.4167 17.8083 73.325 17.7 73.225 17.6C73.0917 17.45 72.9667 17.2917 72.85 17.125C72.75 16.9417 72.725 16.6833 72.775 16.35C72.875 16.3333 72.975 16.3167 73.075 16.3C73.175 16.2833 73.275 16.2667 73.375 16.25C73.9417 16.1667 74.45 16.1333 74.9 16.15C75.3667 16.15 75.7667 16.3583 76.1 16.775C76.2 16.7417 76.3083 16.725 76.425 16.725C76.5417 16.7083 76.6667 16.7 76.8 16.7C77.1 16.7 77.3917 16.675 77.675 16.625C77.975 16.5583 78.1583 16.35 78.225 16C78.325 15.9833 78.4167 15.9583 78.5 15.925C78.6 15.875 78.6583 15.8083 78.675 15.725C78.9083 15.6917 79.175 15.7 79.475 15.75C79.7917 15.7833 80.0833 15.825 80.35 15.875C80.5333 15.9083 80.7 15.9417 80.85 15.975C81.0167 15.9917 81.1417 16 81.225 16C81.375 16.0167 81.45 16.1083 81.45 16.275C81.4667 16.4417 81.5333 16.55 81.65 16.6C82.3 16.4667 82.925 16.3833 83.525 16.35C84.1417 16.3 84.825 16.2417 85.575 16.175C85.8083 15.9417 86.0917 15.7417 86.425 15.575C86.7583 15.4083 87.075 15.3083 87.375 15.275C87.525 15.4417 87.7167 15.5833 87.95 15.7C88.2 15.8167 88.45 15.925 88.7 16.025C89.0167 16.1583 89.3 16.3 89.55 16.45C89.8167 16.6 89.9833 16.7917 90.05 17.025C90.1167 17.2583 90.0167 17.5583 89.75 17.925C89.55 17.975 89.3917 17.9917 89.275 17.975C89.1583 17.9583 89.0333 17.975 88.9 18.025C88.75 18.3917 88.65 18.8083 88.6 19.275C88.5667 19.7417 88.5333 20.2167 88.5 20.7C88.4667 21.1833 88.3833 21.6583 88.25 22.125C88.1333 22.575 87.925 22.975 87.625 23.325C87.2583 23.5417 86.7583 23.7167 86.125 23.85C85.5083 23.9667 84.8417 24.025 84.125 24.025C84.1417 23.9583 84.1917 23.925 84.275 23.925C84.3583 23.925 84.4417 23.9333 84.525 23.95C84.6583 23.9667 84.75 23.9667 84.8 23.95V23.775C84.45 23.9083 84.1583 23.925 83.925 23.825C83.6917 23.725 83.4583 23.5917 83.225 23.425C83.1417 23.3583 83.05 23.3 82.95 23.25C82.8667 23.1833 82.775 23.125 82.675 23.075C82.6917 23.375 82.6917 23.675 82.675 23.975C82.6583 24.275 82.6333 24.5667 82.6 24.85C82.5667 25.3667 82.55 25.85 82.55 26.3C82.55 26.75 82.65 27.1167 82.85 27.4C83.1333 27.8167 83.525 28.075 84.025 28.175C84.5417 28.2583 85.0917 28.2583 85.675 28.175C86.2583 28.0917 86.8 28 87.3 27.9C87.4333 27.8667 87.5583 27.8417 87.675 27.825C87.8083 27.7917 87.9333 27.7667 88.05 27.75C88.0333 27.65 88.05 27.55 88.1 27.45C88.1667 27.3333 88.2333 27.2167 88.3 27.1C88.4 26.9667 88.4917 26.8167 88.575 26.65C88.6583 26.4833 88.7083 26.2917 88.725 26.075C88.7417 25.9583 88.7417 25.8417 88.725 25.725C88.7083 25.5917 88.6833 25.4667 88.65 25.35C88.6167 25.15 88.5917 24.9583 88.575 24.775C88.575 24.5917 88.625 24.4083 88.725 24.225C88.7583 24.2917 88.8167 24.3917 88.9 24.525C88.9833 24.6583 89.0833 24.7583 89.2 24.825C89.3333 24.8917 89.4583 24.8667 89.575 24.75C89.6417 24.7667 89.675 24.8417 89.675 24.975C89.675 25.025 89.675 25.0667 89.675 25.1C89.675 25.1667 89.7083 25.1833 89.775 25.15C89.8083 25.1167 89.8417 25.0917 89.875 25.075C89.925 25.0583 89.975 25.0667 90.025 25.1C90.3417 25.7167 90.675 26.3167 91.025 26.9C91.3917 27.4667 91.7667 28.0167 92.15 28.55ZM89.75 13.25C89.4167 13.3333 89.0167 13.3583 88.55 13.325C88.1 13.275 87.6333 13.225 87.15 13.175C86.55 13.0917 85.9583 13.0417 85.375 13.025C84.8083 12.9917 84.3333 13.0667 83.95 13.25C83.7667 13.6833 83.6 14.0917 83.45 14.475C83.3167 14.8583 83.1417 15.2167 82.925 15.55C82.825 15.55 82.7333 15.5417 82.65 15.525C82.5667 15.4917 82.475 15.4667 82.375 15.45C82.2583 15.4 82.125 15.3583 81.975 15.325C81.825 15.2917 81.6583 15.3083 81.475 15.375C81.625 15.075 81.75 14.75 81.85 14.4C81.95 14.05 82.05 13.6917 82.15 13.325C81.5167 13.2583 80.8917 13.2667 80.275 13.35C79.6583 13.4167 79.0667 13.5 78.5 13.6C78.3 13.6333 78.1083 13.6667 77.925 13.7C77.7417 13.7333 77.5583 13.7583 77.375 13.775C77.325 13.8917 77.3 14.0417 77.3 14.225C77.3 14.3917 77.3167 14.575 77.35 14.775C77.3667 15.025 77.375 15.275 77.375 15.525C77.375 15.775 77.3167 15.9917 77.2 16.175C76.9167 16.3083 76.6583 16.2917 76.425 16.125C76.2083 15.9417 76.0417 15.6667 75.925 15.3C75.8083 14.9333 75.75 14.5417 75.75 14.125C75.4667 14.0917 75.1167 14.1083 74.7 14.175C74.2833 14.225 73.875 14.325 73.475 14.475C73.075 14.625 72.7583 14.8083 72.525 15.025C71.875 14.7917 71.2917 14.45 70.775 14C70.2583 13.5333 69.925 12.9917 69.775 12.375C69.9417 12.3917 70.1083 12.4083 70.275 12.425C70.4583 12.425 70.6333 12.4333 70.8 12.45C71.5833 12.5167 72.35 12.5583 73.1 12.575C73.8667 12.5917 74.6417 12.4917 75.425 12.275C75.3917 11.8583 75.2667 11.5417 75.05 11.325C74.8333 11.0917 74.6 10.8833 74.35 10.7C74.1 10.5 73.9167 10.2333 73.8 9.9C74.15 9.6 74.525 9.45833 74.925 9.475C75.325 9.475 75.6917 9.59167 76.025 9.825C76.375 10.0417 76.6333 10.3417 76.8 10.725C76.9833 11.1083 77.0333 11.5333 76.95 12C77.35 12.0333 77.8 12.0333 78.3 12C78.8 11.95 79.3083 11.8917 79.825 11.825C80.2583 11.7917 80.6917 11.7583 81.125 11.725C81.5583 11.675 81.9583 11.65 82.325 11.65C82.4417 11.5167 82.5083 11.3417 82.525 11.125C82.5583 10.9083 82.575 10.6917 82.575 10.475C82.5917 10.2417 82.625 10.075 82.675 9.975C82.5583 9.74167 82.3917 9.55 82.175 9.4C81.975 9.23333 81.825 9.01667 81.725 8.75C81.8083 8.76667 81.8583 8.75833 81.875 8.725C81.9083 8.675 81.925 8.61667 81.925 8.55C81.9417 8.45 81.9667 8.39167 82 8.375C82.5667 8.375 83.1 8.51667 83.6 8.8C84.1 9.08333 84.4333 9.45833 84.6 9.925C84.7833 10.375 84.6833 10.8917 84.3 11.475C84.3667 11.475 84.45 11.475 84.55 11.475C84.65 11.475 84.7583 11.4833 84.875 11.5C85.0917 11.5167 85.3417 11.525 85.625 11.525C85.9083 11.525 86.175 11.5083 86.425 11.475C86.475 11.475 86.55 11.4667 86.65 11.45C86.95 11.3833 87.2833 11.3417 87.65 11.325C88.0167 11.2917 88.4083 11.3417 88.825 11.475C88.9917 11.525 89.2083 11.6333 89.475 11.8C89.7417 11.95 89.9667 12.125 90.15 12.325C90.3333 12.5083 90.4083 12.6833 90.375 12.85C90.3583 13.0167 90.15 13.15 89.75 13.25ZM86.425 17.5C86.075 17.4833 85.6667 17.4917 85.2 17.525C84.7333 17.5583 84.2667 17.6167 83.8 17.7C83.35 17.7833 82.95 17.8917 82.6 18.025C82.7833 18.375 82.875 18.7583 82.875 19.175C82.875 19.575 82.8583 20 82.825 20.45C82.8083 20.6667 82.7917 20.8917 82.775 21.125C82.7583 21.3583 82.75 21.5917 82.75 21.825C82.9333 21.9917 83.1583 22.075 83.425 22.075C83.6917 22.075 83.9583 22.0583 84.225 22.025C84.3917 22.0083 84.55 21.9917 84.7 21.975C84.8667 21.9583 85.0167 21.9667 85.15 22C85.5167 21.9 85.8 21.6917 86 21.375C86.2 21.0417 86.3417 20.65 86.425 20.2C86.5083 19.75 86.5417 19.2917 86.525 18.825C86.5083 18.3417 86.475 17.9 86.425 17.5ZM78.4 18.025C78.0667 17.9083 77.7 17.9083 77.3 18.025C76.9167 18.125 76.5417 18.2417 76.175 18.375C76.0583 18.425 75.975 18.4583 75.925 18.475C75.8583 18.825 75.7167 19.1083 75.5 19.325C75.3 19.5417 75.1583 19.8167 75.075 20.15C75.4917 20.4167 75.8833 20.7667 76.25 21.2C76.6333 21.6167 77.0083 21.9167 77.375 22.1C77.625 21.5 77.8167 20.85 77.95 20.15C78.1 19.4333 78.25 18.725 78.4 18.025ZM74.3 27.05C74.3333 27.1667 74.2667 27.3333 74.1 27.55C73.9333 27.7667 73.75 27.8917 73.55 27.925C73.6833 27.7917 73.8167 27.6583 73.95 27.525C74.0833 27.375 74.2 27.2167 74.3 27.05Z" fill="#2A9D8F"/>
<path d="M49.1938 41.084C49.2001 41.2674 49.159 41.4603 49.0705 41.6626C48.9819 41.865 48.8839 42.0357 48.7764 42.1748C48.6563 42.3266 48.5014 42.4815 48.3117 42.6396C48.122 42.7913 47.9417 42.8925 47.771 42.9431C47.5939 42.9937 47.379 43.0379 47.126 43.0759C46.8794 43.1138 46.6549 43.1328 46.4526 43.1328C46.187 43.1328 45.9625 43.0854 45.7791 42.9905C45.6021 42.8893 45.425 42.7692 45.248 42.6301C45.1531 42.5542 45.0519 42.4878 44.9444 42.4309C44.8433 42.3677 44.7642 42.3076 44.7073 42.2507C44.5556 42.0926 44.4164 41.8776 44.29 41.6057C44.1635 41.3338 44.0687 41.0303 44.0054 40.6951C43.9422 40.36 43.9201 40.0248 43.939 39.6897C43.9517 39.5 43.9706 39.3229 43.9959 39.1585C44.0276 38.9878 44.0655 38.8329 44.1098 38.6938C44.1603 38.5357 44.2173 38.3902 44.2805 38.2575C44.3437 38.1247 44.4101 37.9982 44.4797 37.878C44.5872 37.701 44.7358 37.5303 44.9255 37.3659C45.1152 37.1951 45.3207 37.0497 45.542 36.9295C45.7696 36.8031 45.9815 36.7209 46.1775 36.6829C46.6075 36.5944 47.0122 36.6039 47.3916 36.7114C47.7773 36.8126 48.1125 36.9422 48.397 37.1003C48.4539 37.0939 48.4982 37.0781 48.5298 37.0528C48.5614 37.0212 48.5899 36.9896 48.6152 36.958C48.6468 36.9201 48.6784 36.8853 48.71 36.8537C48.748 36.822 48.8049 36.8094 48.8808 36.8157C48.9124 36.9042 48.925 36.9991 48.9187 37.1003C48.9124 37.1951 48.8997 37.2963 48.8808 37.4038C48.8744 37.4544 48.865 37.5081 48.8523 37.565C48.846 37.6156 48.8428 37.6694 48.8428 37.7263C48.8365 37.7895 48.8365 37.8559 48.8428 37.9255C48.8555 37.9887 48.865 38.0519 48.8713 38.1152C48.8839 38.2227 48.8934 38.327 48.8997 38.4282C48.9061 38.5294 48.8871 38.621 48.8428 38.7033C48.8238 38.7412 48.8017 38.7728 48.7764 38.7981C48.6816 38.7918 48.612 38.7602 48.5678 38.7033C48.5172 38.64 48.4855 38.561 48.4729 38.4661C48.4666 38.365 48.4603 38.2606 48.4539 38.1531C48.4539 38.0899 48.4508 38.0298 48.4444 37.9729C48.4444 37.9097 48.4381 37.8528 48.4255 37.8022C48.2105 37.5239 47.9291 37.3437 47.5813 37.2615C47.2398 37.173 46.8921 37.1635 46.5379 37.2331C46.2028 37.2963 45.8898 37.4228 45.5989 37.6125C45.3144 37.8022 45.1089 38.0298 44.9824 38.2954C44.9255 38.4155 44.878 38.5483 44.8401 38.6938C44.7579 39.0036 44.7231 39.3388 44.7358 39.6992C44.7484 40.0596 44.8022 40.4074 44.897 40.7425C44.9919 41.0777 45.1215 41.3717 45.2859 41.6247C45.3681 41.7448 45.4566 41.8491 45.5515 41.9377C45.6463 42.0262 45.7222 42.1305 45.7791 42.2507C45.9435 42.2949 46.0985 42.355 46.2439 42.4309C46.3957 42.5068 46.5569 42.551 46.7276 42.5637C46.9806 42.5763 47.2145 42.5416 47.4295 42.4593C47.6509 42.3708 47.8469 42.257 48.0176 42.1179C48.1947 41.9788 48.3433 41.8397 48.4634 41.7005C48.4761 41.6752 48.4887 41.65 48.5014 41.6247C48.514 41.593 48.5266 41.5646 48.5393 41.5393C48.5836 41.4381 48.631 41.3401 48.6816 41.2453C48.7385 41.1441 48.808 41.0745 48.8902 41.0366C48.9724 40.9923 49.0736 41.0081 49.1938 41.084ZM56.7389 42.6491C56.7136 42.7629 56.6503 42.8419 56.5492 42.8862C56.448 42.9241 56.3247 42.9463 56.1792 42.9526C56.1097 42.9526 56.0401 42.9526 55.9706 42.9526C55.901 42.9463 55.8315 42.9431 55.7619 42.9431C55.6165 42.9304 55.4837 42.9273 55.3635 42.9336C55.2497 42.9336 55.1707 42.9557 55.1264 43C55.0758 43.0063 55.0063 42.9937 54.9177 42.9621C54.8355 42.9241 54.7723 42.864 54.728 42.7818C54.6901 42.6996 54.7059 42.5985 54.7754 42.4783C54.8577 42.4404 54.9525 42.4151 55.06 42.4024C55.1675 42.3835 55.2624 42.3582 55.3446 42.3266C55.3446 42.1369 55.3414 41.9408 55.3351 41.7385C55.3351 41.5361 55.3351 41.3369 55.3351 41.1409C55.3287 40.9259 55.3224 40.7236 55.3161 40.5339C55.3161 40.3378 55.3193 40.1608 55.3256 40.0027C54.9335 39.9521 54.5383 39.93 54.1399 39.9363C53.7479 39.9426 53.3685 39.9521 53.0017 39.9648C52.8626 39.9648 52.7267 39.9679 52.5939 39.9743C52.4674 39.9806 52.3409 39.9837 52.2145 39.9837C52.2145 40.1671 52.2145 40.341 52.2145 40.5054C52.2208 40.6698 52.224 40.8279 52.224 40.9797C52.2303 41.182 52.2334 41.3875 52.2334 41.5962C52.2398 41.7986 52.2398 42.023 52.2334 42.2696C52.284 42.3392 52.3536 42.393 52.4421 42.4309C52.5306 42.4688 52.6192 42.5068 52.7077 42.5447C52.7962 42.5827 52.8626 42.6396 52.9069 42.7154C52.8816 42.8166 52.831 42.883 52.7551 42.9146C52.6856 42.9463 52.597 42.9589 52.4895 42.9526C52.4516 42.9526 52.4105 42.9526 52.3662 42.9526C52.322 42.9463 52.2777 42.9399 52.2334 42.9336C52.1576 42.9273 52.0754 42.921 51.9868 42.9146C51.9046 42.9083 51.8193 42.9051 51.7307 42.9051C51.6865 42.9051 51.6422 42.9115 51.5979 42.9241C51.56 42.9304 51.5221 42.9399 51.4841 42.9526C51.4462 42.9652 51.4082 42.9747 51.3703 42.981C51.3387 42.9874 51.3102 42.9874 51.2849 42.981C51.1838 42.9621 51.0952 42.9051 51.0194 42.8103C50.9498 42.7154 50.934 42.6269 50.9719 42.5447C51.0035 42.4752 51.0541 42.4341 51.1237 42.4214C51.1932 42.4024 51.2691 42.3866 51.3513 42.374C51.4335 42.3613 51.5063 42.3297 51.5695 42.2791C51.5695 41.6658 51.5695 41.0524 51.5695 40.439C51.5695 39.8193 51.5632 39.2376 51.5505 38.6938C51.5442 38.4345 51.5379 38.1879 51.5315 37.9539C51.5252 37.72 51.5157 37.5018 51.5031 37.2995C51.4525 37.2742 51.3988 37.2584 51.3418 37.252C51.2849 37.2457 51.2249 37.2457 51.1616 37.252C51.0921 37.252 51.0225 37.2489 50.953 37.2425C50.8834 37.2362 50.817 37.2109 50.7538 37.1667C50.7474 37.1161 50.7506 37.0781 50.7633 37.0528C50.7822 37.0212 50.8012 36.9928 50.8202 36.9675C50.8391 36.9485 50.8549 36.9264 50.8676 36.9011C50.8866 36.8758 50.896 36.841 50.896 36.7967C51.0288 36.8094 51.1648 36.8126 51.3039 36.8062C51.443 36.7999 51.5821 36.7904 51.7212 36.7778C51.7908 36.7778 51.8604 36.7746 51.9299 36.7683C51.9995 36.762 52.069 36.7588 52.1386 36.7588C52.322 36.7525 52.4864 36.7715 52.6318 36.8157C52.7836 36.8537 52.8974 36.939 52.9733 37.0718C52.91 37.1477 52.8152 37.1951 52.6887 37.2141C52.5623 37.2267 52.4231 37.2299 52.2714 37.2236C52.2271 37.3817 52.2018 37.5967 52.1955 37.8686C52.1955 38.1405 52.1987 38.4155 52.205 38.6938V38.7127C52.2113 38.8392 52.2145 38.9657 52.2145 39.0921C52.2208 39.2123 52.2208 39.3261 52.2145 39.4336C52.5623 39.4652 52.9195 39.4779 53.2863 39.4715C53.653 39.4652 54.0135 39.4557 54.3676 39.4431C54.5257 39.4368 54.6806 39.4304 54.8324 39.4241C54.9904 39.4178 55.1422 39.4146 55.2876 39.4146C55.3129 39.3071 55.3256 39.1965 55.3256 39.0827C55.3319 38.9625 55.3287 38.836 55.3161 38.7033C55.3098 38.6274 55.3035 38.5483 55.2971 38.4661C55.2908 38.3839 55.2813 38.3017 55.2687 38.2195C55.256 38.0614 55.2434 37.9065 55.2307 37.7547C55.2181 37.5967 55.2149 37.4449 55.2212 37.2995C55.1327 37.2995 55.0252 37.2931 54.8988 37.2805C54.7786 37.2615 54.6648 37.2331 54.5573 37.1951C54.5194 37.1319 54.5099 37.075 54.5288 37.0244C54.5478 36.9738 54.5699 36.9264 54.5952 36.8821C54.6079 36.8631 54.6205 36.8442 54.6332 36.8252C54.6458 36.7999 54.6553 36.7746 54.6616 36.7493C54.7754 36.7556 54.8893 36.7588 55.0031 36.7588C55.1232 36.7525 55.2371 36.7462 55.3446 36.7398C55.6101 36.7272 55.8599 36.7272 56.0939 36.7398C56.3278 36.7525 56.527 36.8126 56.6914 36.9201C56.6535 37.0402 56.5681 37.1161 56.4353 37.1477C56.3089 37.173 56.1634 37.1825 55.999 37.1762C55.9801 37.3975 55.9674 37.6378 55.9611 37.897C55.9548 38.1563 55.9548 38.425 55.9611 38.7033C55.9611 38.874 55.9642 39.0447 55.9706 39.2154C55.9769 39.3862 55.9832 39.5601 55.9895 39.7371C56.0022 40.1987 56.0085 40.6509 56.0085 41.0935C56.0148 41.5361 56.0022 41.9313 55.9706 42.2791C56.0591 42.3803 56.1761 42.4435 56.3215 42.4688C56.4733 42.4878 56.6124 42.5479 56.7389 42.6491ZM64.088 42.7249C64.0753 42.7882 64.0089 42.8356 63.8888 42.8672C63.7686 42.8988 63.6264 42.9178 63.4619 42.9241C63.2849 42.9304 63.0983 42.9273 62.9023 42.9146C62.7063 42.8957 62.5229 42.8767 62.3522 42.8577C62.1878 42.8388 62.0645 42.8229 61.9823 42.8103C61.9254 42.6838 61.9222 42.5858 61.9728 42.5163C62.0234 42.4404 62.0993 42.3835 62.2004 42.3455C62.3016 42.3013 62.3965 42.2728 62.485 42.2602C62.5039 42.1716 62.5008 42.061 62.4755 41.9282C62.4502 41.7891 62.4123 41.6468 62.3617 41.5014C62.3174 41.3496 62.2763 41.2136 62.2384 41.0935C62.2131 41.0239 62.1909 40.9607 62.172 40.9038C62.153 40.8469 62.1404 40.8026 62.134 40.771C61.7862 40.7584 61.4037 40.7584 60.9863 40.771C60.5753 40.7836 60.2117 40.7995 59.8955 40.8184C59.8639 40.8753 59.8228 40.967 59.7722 41.0935C59.7217 41.2136 59.6647 41.3464 59.6015 41.4919C59.5446 41.6373 59.4877 41.7764 59.4308 41.9092C59.3739 42.042 59.3264 42.1495 59.2885 42.2317C59.3201 42.3013 59.3928 42.3424 59.5067 42.355C59.6205 42.3677 59.7311 42.3898 59.8386 42.4214C59.9335 42.4467 60.0094 42.4941 60.0663 42.5637C60.1232 42.6269 60.1358 42.7344 60.1042 42.8862C59.9461 42.9178 59.7786 42.9336 59.6015 42.9336C59.4245 42.9273 59.2506 42.9178 59.0798 42.9051C58.8965 42.8925 58.7194 42.8862 58.5487 42.8862C58.3843 42.8862 58.2357 42.9083 58.1029 42.9526C58.0712 42.9083 58.0428 42.8609 58.0175 42.8103C57.9985 42.7534 57.9638 42.7123 57.9132 42.687C57.9195 42.5921 57.9416 42.5163 57.9796 42.4593C58.0175 42.4024 58.046 42.336 58.0649 42.2602C58.223 42.2728 58.359 42.257 58.4728 42.2127C58.5929 42.1621 58.6941 42.0926 58.7763 42.0041C58.9154 41.8586 59.0198 41.6752 59.0893 41.4539C59.1652 41.2263 59.2442 41.0145 59.3264 40.8184C59.4592 40.4896 59.5889 40.145 59.7153 39.7846C59.8481 39.4178 59.9841 39.0542 60.1232 38.6938C60.2623 38.3207 60.4046 37.9603 60.55 37.6125C60.6955 37.2647 60.8409 36.9485 60.9863 36.664C61.0749 36.645 61.1855 36.6323 61.3183 36.626C61.4511 36.6197 61.5586 36.6323 61.6408 36.664C61.6029 36.7651 61.5902 36.8505 61.6029 36.9201C61.6218 36.9896 61.644 37.0528 61.6693 37.1098C61.6946 37.1667 61.7135 37.2267 61.7262 37.29C61.7451 37.3469 61.7388 37.4196 61.7072 37.5081C61.7768 37.6852 61.8495 37.8749 61.9254 38.0772C62.0012 38.2796 62.0803 38.4883 62.1625 38.7033C62.3269 39.1459 62.4881 39.6043 62.6462 40.0786C62.8106 40.5528 62.9561 40.9986 63.0825 41.416C63.1015 41.4792 63.1236 41.5583 63.1489 41.6531C63.1806 41.748 63.209 41.8238 63.2343 41.8808C63.2533 41.9124 63.2754 41.944 63.3007 41.9756C63.326 42.0009 63.3513 42.0262 63.3766 42.0515C63.4208 42.0958 63.4588 42.14 63.4904 42.1843C63.522 42.2222 63.5315 42.276 63.5189 42.3455C63.5378 42.3519 63.5663 42.3582 63.6042 42.3645C63.7307 42.3898 63.8508 42.4246 63.9647 42.4688C64.0785 42.5131 64.1196 42.5985 64.088 42.7249ZM61.9348 40.1924C61.8906 40.0723 61.8273 39.8699 61.7451 39.5854C61.6629 39.3008 61.5681 39.0036 61.4606 38.6938C61.3974 38.5104 61.331 38.3365 61.2614 38.1721C61.1918 38.0014 61.1223 37.8496 61.0527 37.7168L60.6923 38.6938C60.6164 38.9024 60.5374 39.1143 60.4552 39.3293C60.373 39.5443 60.3002 39.7371 60.237 39.9079C60.1801 40.0786 60.1358 40.2019 60.1042 40.2778C60.1864 40.2715 60.3129 40.2683 60.4836 40.2683C60.6544 40.262 60.8346 40.2588 61.0243 40.2588C61.2203 40.2525 61.4005 40.2462 61.5649 40.2398C61.7357 40.2272 61.859 40.2114 61.9348 40.1924ZM71.0432 37.1382C70.8282 37.1509 70.6448 37.1983 70.4931 37.2805C70.3476 37.3564 70.218 37.4575 70.1042 37.584C69.9651 37.7358 69.8418 37.9128 69.7343 38.1152C69.6268 38.3112 69.5193 38.5072 69.4118 38.7033C69.3612 38.8044 69.2979 38.9056 69.2221 39.0068C69.1462 39.1143 69.0671 39.2091 68.9849 39.2913C68.9027 39.3735 68.83 39.4652 68.7668 39.5664C68.7035 39.6739 68.6308 39.7814 68.5486 39.8889C68.4664 39.9901 68.3905 40.0691 68.321 40.126C68.3463 40.2715 68.3589 40.439 68.3589 40.6287C68.3589 40.8121 68.3558 41.0018 68.3494 41.1978C68.3494 41.4128 68.3494 41.6215 68.3494 41.8238C68.3494 42.0262 68.3652 42.2033 68.3969 42.355C68.4222 42.3803 68.4506 42.3898 68.4822 42.3835C68.5138 42.3771 68.536 42.3582 68.5486 42.3266C68.6055 42.3898 68.6751 42.4404 68.7573 42.4783C68.8395 42.5099 68.9154 42.5447 68.9849 42.5827C69.0608 42.6269 69.1114 42.687 69.1367 42.7629C69.1683 42.8324 69.1335 42.9083 69.0324 42.9905C68.8806 42.9715 68.7257 42.9621 68.5676 42.9621C68.4158 42.9621 68.2609 42.9621 68.1028 42.9621C67.9131 42.9684 67.7203 42.9715 67.5242 42.9715C67.3345 42.9652 67.1385 42.9463 66.9362 42.9146C66.9298 42.7502 66.9709 42.6332 67.0595 42.5637C67.148 42.4941 67.246 42.4341 67.3535 42.3835C67.4104 42.3519 67.4673 42.3234 67.5242 42.2981C67.5811 42.2665 67.6286 42.2254 67.6665 42.1748C67.6665 42.1242 67.6665 42.0515 67.6665 41.9566C67.6728 41.8555 67.676 41.7416 67.676 41.6152C67.6823 41.4508 67.6855 41.2769 67.6855 41.0935C67.6918 40.9038 67.6918 40.7267 67.6855 40.5623C67.6855 40.3916 67.6792 40.2588 67.6665 40.164C67.6475 40.0375 67.5906 39.911 67.4958 39.7846C67.4009 39.6581 67.3061 39.5348 67.2112 39.4146C67.129 39.3008 67.0468 39.1838 66.9646 39.0637C66.8824 38.9372 66.8002 38.8139 66.718 38.6938C66.6042 38.5167 66.4904 38.3428 66.3765 38.1721C66.269 37.995 66.1615 37.8243 66.054 37.6599C66.0414 37.6093 66.0098 37.5777 65.9592 37.565C65.9086 37.5524 65.8675 37.5334 65.8359 37.5081C65.8359 37.4575 65.8327 37.4101 65.8264 37.3659C65.8201 37.3153 65.8043 37.2773 65.779 37.252C65.741 37.2457 65.6999 37.2425 65.6557 37.2425C65.6177 37.2362 65.5766 37.2331 65.5324 37.2331C65.4818 37.2331 65.428 37.2331 65.3711 37.2331C65.3205 37.2267 65.2636 37.2173 65.2004 37.2046C65.1877 37.192 65.1783 37.1762 65.1719 37.1572C65.1656 37.1319 65.1466 37.1161 65.115 37.1098C65.096 37.0212 65.0992 36.958 65.1245 36.9201C65.1498 36.8821 65.1814 36.8473 65.2194 36.8157C65.2383 36.7967 65.251 36.7841 65.2573 36.7778C65.3838 36.7967 65.5229 36.8031 65.6746 36.7967C65.8264 36.7904 65.9782 36.7809 66.1299 36.7683C66.2058 36.762 66.2817 36.7556 66.3576 36.7493C66.4334 36.743 66.5062 36.7398 66.5757 36.7398C66.7717 36.7335 66.9393 36.7556 67.0784 36.8062C67.2239 36.8568 67.3187 36.958 67.363 37.1098C67.2745 37.173 67.1606 37.2141 67.0215 37.2331C66.8887 37.2457 66.7496 37.252 66.6042 37.252C66.7306 37.486 66.8761 37.7263 67.0405 37.9729C67.2112 38.2132 67.3883 38.4535 67.5717 38.6938C67.6792 38.8266 67.7835 38.9625 67.8847 39.1016C67.9858 39.2344 68.0839 39.364 68.1787 39.4905C68.2736 39.3577 68.3652 39.2249 68.4538 39.0921C68.5486 38.9593 68.6435 38.8266 68.7383 38.6938C68.9027 38.4535 69.0671 38.2164 69.2315 37.9824C69.396 37.7421 69.554 37.4986 69.7058 37.252C69.6552 37.2457 69.5888 37.2457 69.5066 37.252C69.4244 37.2584 69.3359 37.2647 69.241 37.271C69.1904 37.2773 69.1399 37.2836 69.0893 37.29C69.0387 37.29 68.9913 37.29 68.947 37.29C68.8521 37.2394 68.8142 37.154 68.8332 37.0339C68.8585 36.9074 68.9122 36.822 68.9944 36.7778C69.1209 36.7904 69.2505 36.7936 69.3833 36.7873C69.5224 36.7809 69.6615 36.7746 69.8007 36.7683C69.8829 36.762 69.9651 36.7556 70.0473 36.7493C70.1295 36.743 70.2085 36.7398 70.2844 36.7398C70.4678 36.7398 70.629 36.7683 70.7681 36.8252C70.9072 36.8758 70.9989 36.9801 71.0432 37.1382ZM78.3584 37.0434C78.3015 37.1319 78.2193 37.1983 78.1118 37.2425C78.0106 37.2868 77.9031 37.3279 77.7893 37.3659C77.6818 37.4038 77.587 37.4575 77.5048 37.5271C77.5048 37.7358 77.5048 37.9381 77.5048 38.1341C77.5048 38.3238 77.5016 38.5135 77.4953 38.7033C77.489 38.9625 77.4826 39.2218 77.4763 39.481C77.4763 39.734 77.4763 40.0027 77.4763 40.2873C77.4763 40.3442 77.4795 40.4042 77.4858 40.4675C77.4921 40.5244 77.4985 40.5876 77.5048 40.6572C77.5174 40.752 77.5269 40.8532 77.5332 40.9607C77.5459 41.0619 77.5459 41.1631 77.5332 41.2642C77.5206 41.3844 77.489 41.4982 77.4384 41.6057C77.3878 41.7132 77.3372 41.8207 77.2866 41.9282C77.2234 42.0547 77.1538 42.1938 77.0779 42.3455C77.0084 42.491 76.9388 42.5985 76.8693 42.668C76.7871 42.7565 76.6574 42.8356 76.4804 42.9051C76.3097 42.9747 76.1294 43.0285 75.9397 43.0664C75.75 43.1043 75.5888 43.1233 75.456 43.1233C74.7288 43.1233 74.1502 42.921 73.7202 42.5163C73.2902 42.1052 73.0499 41.5361 72.9994 40.8089C72.9741 40.4738 72.9646 40.1292 72.9709 39.7751C72.9772 39.4146 72.9835 39.0542 72.9899 38.6938C73.0025 38.4535 73.012 38.2132 73.0183 37.9729C73.0246 37.7263 73.0278 37.486 73.0278 37.252C72.9456 37.252 72.8318 37.2457 72.6863 37.2331C72.5409 37.2141 72.4208 37.1825 72.3259 37.1382C72.3006 37.075 72.3038 37.0086 72.3354 36.939C72.367 36.8695 72.4144 36.8126 72.4777 36.7683C72.5788 36.7873 72.6927 36.7967 72.8191 36.7967C72.9519 36.7967 73.091 36.7967 73.2365 36.7967C73.3124 36.7904 73.3882 36.7873 73.4641 36.7873C73.5463 36.7873 73.6254 36.7873 73.7013 36.7873C73.9226 36.7936 74.1154 36.8252 74.2798 36.8821C74.4506 36.9327 74.5423 37.0465 74.5549 37.2236C74.3462 37.3058 74.1218 37.3153 73.8815 37.252C73.8246 37.3342 73.7929 37.4386 73.7866 37.565C73.7866 37.6852 73.7929 37.8053 73.8056 37.9255C73.8056 37.9761 73.8056 38.0235 73.8056 38.0678C73.8119 38.112 73.8151 38.1563 73.8151 38.2005C73.8151 38.2764 73.8119 38.3555 73.8056 38.4377C73.8056 38.5199 73.8024 38.6052 73.7961 38.6938C73.7835 38.9467 73.7676 39.2123 73.7487 39.4905C73.7297 39.7687 73.7202 40.0375 73.7202 40.2967C73.7202 40.7204 73.7518 41.1156 73.8151 41.4824C73.8846 41.8428 74.0174 42.1052 74.2134 42.2696C74.3526 42.3835 74.5359 42.4752 74.7636 42.5447C74.9912 42.6079 75.2315 42.6364 75.4845 42.6301C75.7437 42.6174 75.9808 42.5574 76.1958 42.4499C76.4424 42.3171 76.629 42.1274 76.7555 41.8808C76.8819 41.6278 76.9673 41.3369 77.0116 41.0081C77.0558 40.673 77.0779 40.322 77.0779 39.9553C77.0779 39.7529 77.0748 39.5474 77.0685 39.3388C77.0621 39.1301 77.0527 38.9182 77.04 38.7033C77.0337 38.5009 77.0274 38.2986 77.021 38.0962C77.0147 37.8939 77.0147 37.7042 77.021 37.5271C76.9578 37.4512 76.8819 37.388 76.7934 37.3374C76.7049 37.2868 76.6195 37.2299 76.5373 37.1667C76.4614 37.1034 76.4077 37.0212 76.376 36.9201C76.4899 36.8442 76.6385 36.7936 76.8218 36.7683C77.0052 36.7367 77.1981 36.7272 77.4004 36.7398C77.6028 36.7525 77.7893 36.7841 77.9601 36.8347C78.1371 36.8853 78.2699 36.9548 78.3584 37.0434ZM85.5128 42.7249C85.5001 42.7882 85.4337 42.8356 85.3136 42.8672C85.1935 42.8988 85.0512 42.9178 84.8868 42.9241C84.7097 42.9304 84.5232 42.9273 84.3272 42.9146C84.1311 42.8957 83.9477 42.8767 83.777 42.8577C83.6126 42.8388 83.4893 42.8229 83.4071 42.8103C83.3502 42.6838 83.347 42.5858 83.3976 42.5163C83.4482 42.4404 83.5241 42.3835 83.6253 42.3455C83.7264 42.3013 83.8213 42.2728 83.9098 42.2602C83.9288 42.1716 83.9256 42.061 83.9003 41.9282C83.875 41.7891 83.8371 41.6468 83.7865 41.5014C83.7422 41.3496 83.7011 41.2136 83.6632 41.0935C83.6379 41.0239 83.6158 40.9607 83.5968 40.9038C83.5778 40.8469 83.5652 40.8026 83.5589 40.771C83.2111 40.7584 82.8285 40.7584 82.4112 40.771C82.0001 40.7836 81.6365 40.7995 81.3204 40.8184C81.2888 40.8753 81.2477 40.967 81.1971 41.0935C81.1465 41.2136 81.0896 41.3464 81.0263 41.4919C80.9694 41.6373 80.9125 41.7764 80.8556 41.9092C80.7987 42.042 80.7513 42.1495 80.7133 42.2317C80.7449 42.3013 80.8177 42.3424 80.9315 42.355C81.0453 42.3677 81.156 42.3898 81.2635 42.4214C81.3583 42.4467 81.4342 42.4941 81.4911 42.5637C81.548 42.6269 81.5607 42.7344 81.529 42.8862C81.371 42.9178 81.2034 42.9336 81.0263 42.9336C80.8493 42.9273 80.6754 42.9178 80.5047 42.9051C80.3213 42.8925 80.1442 42.8862 79.9735 42.8862C79.8091 42.8862 79.6605 42.9083 79.5277 42.9526C79.4961 42.9083 79.4676 42.8609 79.4423 42.8103C79.4234 42.7534 79.3886 42.7123 79.338 42.687C79.3443 42.5921 79.3664 42.5163 79.4044 42.4593C79.4423 42.4024 79.4708 42.336 79.4898 42.2602C79.6478 42.2728 79.7838 42.257 79.8976 42.2127C80.0178 42.1621 80.1189 42.0926 80.2011 42.0041C80.3402 41.8586 80.4446 41.6752 80.5141 41.4539C80.59 41.2263 80.6691 41.0145 80.7513 40.8184C80.8841 40.4896 81.0137 40.145 81.1402 39.7846C81.273 39.4178 81.4089 39.0542 81.548 38.6938C81.6871 38.3207 81.8294 37.9603 81.9748 37.6125C82.1203 37.2647 82.2657 36.9485 82.4112 36.664C82.4997 36.645 82.6103 36.6323 82.7431 36.626C82.8759 36.6197 82.9834 36.6323 83.0656 36.664C83.0277 36.7651 83.015 36.8505 83.0277 36.9201C83.0467 36.9896 83.0688 37.0528 83.0941 37.1098C83.1194 37.1667 83.1384 37.2267 83.151 37.29C83.17 37.3469 83.1636 37.4196 83.132 37.5081C83.2016 37.6852 83.2743 37.8749 83.3502 38.0772C83.4261 38.2796 83.5051 38.4883 83.5873 38.7033C83.7517 39.1459 83.913 39.6043 84.0711 40.0786C84.2355 40.5528 84.3809 40.9986 84.5074 41.416C84.5263 41.4792 84.5485 41.5583 84.5738 41.6531C84.6054 41.748 84.6338 41.8238 84.6591 41.8808C84.6781 41.9124 84.7002 41.944 84.7255 41.9756C84.7508 42.0009 84.7761 42.0262 84.8014 42.0515C84.8457 42.0958 84.8836 42.14 84.9152 42.1843C84.9468 42.2222 84.9563 42.276 84.9437 42.3455C84.9627 42.3519 84.9911 42.3582 85.029 42.3645C85.1555 42.3898 85.2757 42.4246 85.3895 42.4688C85.5033 42.5131 85.5444 42.5985 85.5128 42.7249ZM83.3597 40.1924C83.3154 40.0723 83.2522 39.8699 83.17 39.5854C83.0878 39.3008 82.9929 39.0036 82.8854 38.6938C82.8222 38.5104 82.7558 38.3365 82.6862 38.1721C82.6167 38.0014 82.5471 37.8496 82.4776 37.7168L82.1171 38.6938C82.0412 38.9024 81.9622 39.1143 81.88 39.3293C81.7978 39.5443 81.7251 39.7371 81.6618 39.9079C81.6049 40.0786 81.5607 40.2019 81.529 40.2778C81.6113 40.2715 81.7377 40.2683 81.9085 40.2683C82.0792 40.262 82.2594 40.2588 82.4491 40.2588C82.6451 40.2525 82.8253 40.2462 82.9898 40.2398C83.1605 40.2272 83.2838 40.2114 83.3597 40.1924ZM92.9613 36.958C92.9549 37.0908 92.8885 37.1698 92.7621 37.1951C92.6419 37.2204 92.5091 37.2331 92.3637 37.2331C92.3131 37.2457 92.2783 37.2773 92.2594 37.3279C92.2467 37.3722 92.2341 37.4228 92.2214 37.4797C92.2088 37.5303 92.1708 37.5745 92.1076 37.6125C92.1266 37.7832 92.1392 37.9603 92.1455 38.1436C92.1582 38.327 92.1677 38.5135 92.174 38.7033C92.1803 38.9182 92.1835 39.1396 92.1835 39.3672C92.1835 39.5885 92.1835 39.813 92.1835 40.0407C92.1898 40.5276 92.1961 41.0081 92.2025 41.4824C92.2151 41.9503 92.2499 42.3803 92.3068 42.7724C92.2372 42.8735 92.1297 42.9304 91.9843 42.9431C91.8389 42.9557 91.7377 42.9273 91.6808 42.8577C91.529 42.6743 91.3836 42.4688 91.2445 42.2412C91.1117 42.0136 90.9536 41.7922 90.7702 41.5772C90.4287 41.1725 90.0999 40.7109 89.7838 40.1924C89.4676 39.6739 89.1514 39.1743 88.8352 38.6938C88.7151 38.4977 88.5918 38.3112 88.4653 38.1341C88.3389 37.9571 88.2124 37.7895 88.0859 37.6314C88.0796 37.8211 88.0733 38.0014 88.0669 38.1721C88.0606 38.3428 88.0575 38.5167 88.0575 38.6938C88.0575 38.9277 88.0606 39.1712 88.0669 39.4241C88.0733 39.6707 88.0796 39.9458 88.0859 40.2493C88.0859 40.3631 88.0828 40.4833 88.0764 40.6098C88.0764 40.7299 88.0733 40.85 88.0669 40.9702C88.0543 41.2231 88.0448 41.4634 88.0385 41.6911C88.0385 41.9124 88.0669 42.0958 88.1239 42.2412C88.1555 42.3297 88.2124 42.3961 88.2946 42.4404C88.3768 42.4846 88.4622 42.5257 88.5507 42.5637C88.6392 42.5953 88.7056 42.6427 88.7499 42.706C88.7246 42.7818 88.6708 42.8324 88.5886 42.8577C88.5127 42.883 88.4558 42.9241 88.4179 42.981C88.3041 42.9368 88.1839 42.9178 88.0575 42.9241C87.9373 42.9241 87.8172 42.9336 87.697 42.9526C87.5642 42.9652 87.4378 42.9715 87.3176 42.9715C87.1975 42.9715 87.0868 42.9431 86.9856 42.8862C86.9477 42.8356 86.9319 42.7945 86.9382 42.7629C86.9509 42.7249 86.9667 42.6902 86.9856 42.6585C86.9983 42.6332 87.0109 42.6111 87.0236 42.5921C87.0362 42.5668 87.0426 42.5384 87.0426 42.5068C87.1248 42.4752 87.2101 42.4499 87.2987 42.4309C87.3872 42.4056 87.4757 42.3803 87.5642 42.355C87.6211 41.8681 87.6433 41.3591 87.6306 40.8279C87.6243 40.2967 87.6053 39.7498 87.5737 39.187C87.5737 39.1048 87.5706 39.0226 87.5642 38.9404C87.5642 38.8582 87.5611 38.776 87.5548 38.6938C87.5484 38.4535 87.5389 38.2164 87.5263 37.9824C87.52 37.7421 87.5137 37.5018 87.5073 37.2615C87.4314 37.2868 87.3524 37.2963 87.2702 37.29C87.188 37.2836 87.1184 37.2647 87.0615 37.2331C86.9983 37.1888 86.9604 37.1287 86.9477 37.0528C86.9351 36.977 86.973 36.8884 87.0615 36.7873C87.1437 36.7936 87.2259 36.7967 87.3081 36.7967C87.3903 36.7967 87.4725 36.7936 87.5548 36.7873C87.7697 36.7873 87.9784 36.7936 88.1808 36.8062C88.3894 36.8189 88.5855 36.8663 88.7688 36.9485C88.7688 36.9801 88.7594 37.0023 88.7404 37.0149C88.7277 37.0276 88.7119 37.0402 88.693 37.0528C88.6424 37.0718 88.6171 37.0971 88.6171 37.1287C88.7941 37.388 88.9712 37.6504 89.1482 37.916C89.3316 38.1752 89.5118 38.4345 89.6889 38.6938C90.0304 39.1807 90.3718 39.6676 90.7133 40.1545C91.0611 40.6414 91.4025 41.122 91.7377 41.5962C91.725 41.1093 91.7187 40.6256 91.7187 40.145C91.7187 39.6644 91.7124 39.1838 91.6997 38.7033C91.6871 38.229 91.6586 37.7547 91.6144 37.2805C91.5701 37.2615 91.5258 37.2489 91.4816 37.2425C91.4373 37.2362 91.3931 37.2331 91.3488 37.2331C91.2666 37.2204 91.1939 37.2046 91.1306 37.1856C91.0674 37.1667 91.0326 37.1161 91.0263 37.0339C91.02 36.9264 91.0959 36.8505 91.2539 36.8062C91.4183 36.7556 91.6081 36.7272 91.823 36.7209C91.9875 36.7145 92.1519 36.7209 92.3163 36.7398C92.4807 36.7588 92.623 36.7873 92.7431 36.8252C92.8632 36.8631 92.936 36.9074 92.9613 36.958Z" fill="#2A9D8F"/>
<path d="M2.64673 29.8023L7.29965 28.7448L11.5296 28.5333L14.9135 28.7448L18.2975 29.3793L24.0079 31.2828L25.9113 30.0138L28.2378 29.1678L30.5642 28.5333L33.5252 28.1104L33.3137 30.8598L32.2562 33.3978L30.7757 35.5127L29.0838 37.2047L26.3343 39.3197L22.7389 40.8001L18.2975 41.4346L14.0675 41.0116L12.1641 40.3771L10.0491 39.5312L8.14563 38.4737L6.87665 37.4162L5.39618 35.7242L4.1272 33.8208L3.06972 31.7058L2.64673 29.8023Z" fill="#FAFAFA"/>
<path d="M24.6424 5.9043L26.5459 6.32729L28.2378 7.59627L29.2953 9.71123L29.0838 12.0377L27.8148 11.8262L26.5459 10.9802L25.0654 9.28824L24.4309 7.59627L24.6424 5.9043Z" fill="#FAFAFA"/>
<path d="M10.2606 4.20996L11.3181 6.53642L11.5296 8.65138L10.6836 10.7663L9.62613 12.0353L8.56865 13.0928L7.08818 13.3043L6.87668 10.5549L7.08818 9.28587L7.29967 6.95941L8.99164 5.26744L10.2606 4.20996Z" fill="#FAFAFA"/>
<path d="M22.7388 13.3058L24.2193 12.4598L25.2768 12.0368L26.5458 11.8254L27.8148 12.0368L29.2952 12.8828L29.9297 10.9794L30.9872 7.38393L31.6217 6.96094L32.6792 8.22992L33.5252 9.92189V12.8828L32.4677 14.5748L31.1987 16.2668L30.3527 16.4783H29.2952L27.1803 17.3243H25.0653L23.1618 16.2668L21.0469 14.3633L21.6814 13.9403L22.7388 13.3058Z" fill="#FAFAFA"/>
<path d="M4.55013 7.17242L5.7373 8.35614L6.47931 9.2202L6.87659 10.3449L7.08809 11.6138L6.97723 13.2964L9.41455 12.8828L12.474 13.511L14.0675 14.7863L15.125 17.1127L13.433 16.9013L11.318 17.1127L9.62605 17.1127L8.14557 16.4783L6.87659 15.8438L5.60762 16.0553L4.55013 15.4208L3.57468 14.4582L2.43517 12.6713L2.64667 10.7679L3.06966 9.28738L3.70415 8.01841L4.12714 7.59541L4.55013 7.17242Z" fill="#FAFAFA"/>
<path d="M2.64661 10.4294C2.85811 9.79491 3.2811 8.94892 3.2811 8.94892C3.2811 8.94892 3.91559 8.73743 5.18457 10.2179C6.03055 11.4869 6.24205 12.1214 6.24205 13.3903C6.24205 14.6593 5.60756 15.7168 5.60756 15.7168L3.91559 14.6593L3.0696 13.8133L2.64661 12.7559C2.64661 12.7559 2.43512 11.9099 2.64661 10.4294Z" fill="#2A9D8F"/>
<path d="M31.833 15.2933C31.41 15.9278 30.7305 16.4516 30.7305 16.4516C30.7305 16.4516 30.0828 16.285 29.82 14.3528C29.7979 12.8279 29.9645 12.1802 30.653 11.1142C31.3414 10.0482 32.679 9.37141 32.679 9.37141C32.679 9.37141 33.0505 9.69143 33.3135 10.2174C33.5765 10.7434 33.5474 11.2749 33.5474 11.2749L33.5474 12.4801L33.102 13.6013C33.102 13.6013 32.6568 13.977 31.833 15.2933Z" fill="#2A9D8F"/>
<path d="M8.35693 16.5621C7.08795 15.9276 6.45347 15.9276 5.81897 15.5046C6.87646 14.4472 7.08795 14.0242 8.77992 13.6012C10.4712 13.3839 11.9524 13.8127 13.3519 15.1424C14.7515 16.472 15.1248 16.9851 15.1248 16.9851L13.2213 16.9851L12.1639 17.1966L10.8949 17.1966C10.8949 17.1966 9.62591 17.1966 8.35693 16.5621Z" fill="#2A9D8F"/>
<path d="M24.2191 16.9842C22.877 16.4702 22.3156 15.3265 21.6811 14.9964C22.4979 13.7436 24.0081 13.6434 24.6421 13.5159C25.488 13.3457 27.3915 13.5159 28.7753 14.2152C30.159 14.9145 30.3525 15.9267 30.3525 15.9267L29.9295 16.3497L29.0835 16.3497L28.2375 16.7727L26.757 17.4072C26.757 17.4072 25.5916 17.3434 24.2191 16.9842Z" fill="#2A9D8F"/>
<path d="M7.08815 30.4515L11.9526 32.0024L14.279 33.0599L16.6055 34.5404L20.4124 37.2898L24.0079 40.4623L22.1044 40.8853L20.4124 41.0968L18.509 41.3083L16.1825 41.0968L14.4905 38.1358L11.9526 35.5979L8.99162 32.8484L5.60768 31.1564L2.64673 30.0146L7.08815 30.4515Z" fill="#2A9D8F"/>
<path d="M26.9688 32.7647L28.0262 31.3686L29.5067 30.3111L30.9872 29.4651L32.8906 28.6191H33.3136L33.1021 29.0421L31.8332 30.0996L30.7757 31.5801L30.1412 32.8491L29.5067 34.3295L26.9688 32.7647Z" fill="#2A9D8F"/>
<path d="M2.64673 29.6766C5.11419 29.2536 7.51114 28.6191 12.1641 28.6191C16.394 28.8306 18.9319 29.3896 22.1044 30.5226C25.0653 31.5801 29.9298 34.541 30.7757 35.1755" stroke="black" stroke-width="0.637155"/>
<path d="M24.0079 31.3682C24.8539 30.2264 27.3106 29.4111 28.4493 29.0417C30.5643 28.4072 31.5405 28.3536 33.7367 28.1957" stroke="black" stroke-width="0.637155"/>
<path d="M26.7573 32.7622C28.2377 30.8588 31.0284 28.9494 33.5251 28.4051" stroke="black" stroke-width="0.637155"/>
<path d="M29.718 34.4568C30.3525 32.1303 31.41 30.0996 33.7365 28.6192" stroke="black" stroke-width="0.637155"/>
<path fill-rule="evenodd" clip-rule="evenodd" d="M0.778076 16.0207C0.654689 16.1902 0.537003 16.433 0.53181 16.6386C0.529316 16.7373 0.552694 16.8176 0.604235 16.8824C0.656681 16.9483 0.755839 17.0203 0.945479 17.068C1.06483 17.098 1.13554 17.0817 1.17657 17.0607C1.21902 17.0389 1.25556 16.999 1.28175 16.9372C1.30842 16.8743 1.32033 16.797 1.31579 16.7213C1.31114 16.6437 1.29045 16.5857 1.27029 16.5553L1.62295 16.3217C1.69492 16.4304 1.73024 16.5662 1.73802 16.696C1.74592 16.8277 1.72668 16.9715 1.67117 17.1024C1.61518 17.2344 1.51851 17.3608 1.36925 17.4372C1.21857 17.5143 1.03906 17.5277 0.842256 17.4782C0.58969 17.4146 0.39865 17.3034 0.273177 17.1457C0.146799 16.9868 0.104536 16.8027 0.108952 16.6279C0.117452 16.2914 0.298121 15.9568 0.447895 15.7558L0.456867 15.7437L0.467451 15.7331C0.793079 15.4053 1.22765 15.2795 1.63445 15.2952C2.03809 15.3109 2.4374 15.4666 2.70218 15.7331L2.71276 15.7437L2.72173 15.7558C2.94025 16.049 3.07837 16.3197 3.13868 16.5929C3.19959 16.8688 3.17755 17.131 3.10107 17.4004C3.02589 17.6653 2.89659 17.9418 2.74047 18.2474C2.67938 18.3669 2.61484 18.4897 2.54684 18.6191C2.43662 18.8288 2.31729 19.0558 2.18879 19.3145C1.51555 20.6698 0.96657 23.0018 0.898004 25.6243C0.829508 28.2442 1.24126 31.1283 2.46517 33.5922C4.91405 38.5221 10.844 42.577 18.5088 42.577C26.1536 42.577 30.869 37.7053 32.2286 35.7894C32.2487 35.7612 32.2689 35.7326 32.2894 35.7038C32.9728 34.7419 33.8843 33.4591 34.4778 31.3683C35.0891 29.2145 35.3665 26.1888 34.681 21.766C34.4095 20.6768 34.0258 19.7902 33.696 19.1033C33.6132 18.9309 33.5339 18.7713 33.4603 18.6236L33.4439 18.5906C33.3769 18.456 33.3144 18.3307 33.2597 18.2164C33.1451 17.9771 33.0503 17.7593 33.0216 17.5858C32.9704 17.2771 32.9829 16.808 33.2038 16.4062C33.4348 15.9859 33.8775 15.6706 34.6121 15.6706C35.343 15.6706 35.7723 15.9841 35.9579 16.3843C36.047 16.5766 36.0748 16.7792 36.0587 16.9574C36.0431 17.1296 35.9836 17.3055 35.8677 17.4222C35.4713 17.8211 34.7782 17.7403 34.1857 17.144L34.4858 16.8458C34.9988 17.3622 35.4112 17.2814 35.5676 17.124C35.5899 17.1016 35.627 17.0341 35.6374 16.9194C35.6472 16.8107 35.6301 16.683 35.5741 16.5623C35.4695 16.3366 35.2079 16.0936 34.6121 16.0936C34.0201 16.0936 33.7258 16.3348 33.5745 16.61C33.413 16.9036 33.3979 17.269 33.4389 17.5167C33.4562 17.6214 33.5226 17.7862 33.6412 18.0337C33.6946 18.1451 33.7557 18.2678 33.8233 18.4036L33.839 18.435C33.9126 18.5829 33.9931 18.7449 34.0773 18.9202C34.4144 19.6224 34.8125 20.541 35.0938 21.6731L35.096 21.6823L35.0975 21.6917C35.792 26.1658 35.5166 29.2575 34.8847 31.4838C34.2712 33.6451 33.3248 34.9769 32.6365 35.9455C32.6153 35.9754 32.5943 36.005 32.5736 36.0342C31.1694 38.013 26.3413 43 18.5088 43C10.6964 43 4.61229 38.8654 2.08634 33.7804C0.822847 31.2368 0.405461 28.279 0.475156 25.6133C0.544781 22.9502 1.10131 20.5529 1.80997 19.1263C1.93939 18.8658 2.06467 18.6273 2.17727 18.413C2.24459 18.2848 2.30737 18.1653 2.3638 18.0549C2.51861 17.7519 2.63114 17.5069 2.69415 17.2849C2.75586 17.0675 2.76837 16.8776 2.72564 16.6841C2.683 16.4909 2.5819 16.2785 2.39189 16.0211C2.21361 15.848 1.92707 15.7299 1.61809 15.7179C1.3111 15.706 1.00425 15.7996 0.778076 16.0207Z" fill="black"/>
<path fill-rule="evenodd" clip-rule="evenodd" d="M10.2773 4L10.4169 4.15355C10.8035 4.57879 11.2013 5.43802 11.4423 6.39983C11.6845 7.36625 11.7799 8.48129 11.5219 9.42738C11.3539 10.0435 11.0808 10.6439 10.7676 11.146C10.4565 11.6445 10.0955 12.0623 9.74322 12.2972C9.435 12.5026 9.30731 12.6402 9.25208 12.7323C9.24059 12.7514 9.23178 12.7692 9.22503 12.7865C9.90734 12.7333 10.6491 12.7632 11.3893 12.9244C13.2464 13.3288 14.4882 14.5223 15.3587 17.3078L14.9676 17.4655C14.9676 17.4655 14.965 17.4603 14.9556 17.4493C14.9466 17.4386 14.9329 17.4247 14.9133 17.4086C14.8742 17.3763 14.8144 17.3377 14.7288 17.3005C14.5578 17.2261 14.2879 17.1594 13.8878 17.1594C13.3678 17.1594 13.132 17.2493 12.3635 17.3023C12.1952 17.3139 12.0298 17.3256 11.8717 17.3368C11.318 17.3759 10.8555 17.4086 10.6834 17.4086C10.4505 17.4086 9.90408 17.3525 9.25736 17.1908C8.60928 17.0287 7.84383 16.7567 7.18212 16.3156C6.89567 16.1246 6.64607 16.0609 6.433 16.0636C6.21821 16.0663 6.02321 16.1368 5.84847 16.2416C5.57243 16.4073 5.38086 16.6295 5.24295 16.7895C5.20285 16.8361 5.16728 16.8773 5.13549 16.9104C4.31546 18.1388 3.68838 19.6312 3.24514 21.0664C2.69391 22.8514 2.43501 24.5214 2.43502 25.4455C2.43502 25.4787 2.43496 25.5142 2.4349 25.5521C2.43306 26.5967 2.42818 29.3739 3.6614 32.3437C4.9351 35.411 7.53346 38.6932 12.8585 40.4703C18.0967 41.8307 22.0625 41.1467 24.9761 39.794C27.8952 38.4387 29.7738 36.4046 30.8194 35.0453L30.8224 35.0414L30.8256 35.0377C31.9561 33.7016 33.2651 30.8364 33.6053 27.4599C33.9449 24.0908 33.3174 20.238 30.6114 16.9075L30.5944 16.8866L30.5832 16.8622C29.4146 14.3124 29.1816 12.9429 29.3772 11.7692C29.4738 11.1895 29.6738 10.6676 29.8941 10.0955L29.9031 10.072C30.1222 9.50311 30.3651 8.87224 30.5703 8.05146C30.6522 7.72415 30.7471 7.46612 30.8567 7.27271C30.9656 7.08057 31.0989 6.93473 31.2655 6.86156C31.4394 6.78512 31.616 6.80246 31.7746 6.87165C31.9276 6.93838 32.0694 7.05479 32.1981 7.19062C32.4558 7.46268 32.7044 7.85952 32.9249 8.27043C33.1471 8.68458 33.3481 9.12707 33.5079 9.49992L33.5119 9.50934L33.515 9.5191C33.6842 10.0508 33.9075 10.772 33.8356 11.6883C33.7634 12.6071 33.3969 13.702 32.4252 14.9975L32.423 15.0005L31.0451 16.772C33.7486 20.1789 34.3696 24.0945 34.0262 27.5023C33.6794 30.9435 32.3468 33.8922 31.1517 35.3071C30.0817 36.6973 28.1542 38.7848 25.1542 40.1777C22.1471 41.5738 18.0783 42.2645 12.7451 40.8779L12.7382 40.8761L12.7314 40.8738C7.2747 39.0549 4.58733 35.6765 3.27075 32.5059C2.00458 29.4568 2.00992 26.6087 2.01189 25.5548C2.01196 25.5159 2.01203 25.4794 2.01203 25.4455C2.01202 24.466 2.28185 22.7521 2.84098 20.9416C3.37368 19.2167 4.17621 17.38 5.27915 15.9948C4.66811 15.664 3.92296 15.1772 3.34293 14.5972C3.00246 14.2567 2.34577 13.4193 2.24005 12.1118C2.13397 10.7998 2.58583 9.05469 4.38802 6.90924L4.52682 6.74399L4.68923 6.8861C5.7432 7.80832 6.43612 8.80871 6.83409 9.8202C6.85617 9.62318 6.8515 9.40979 6.84601 9.15878C6.8456 9.13983 6.84518 9.12067 6.84477 9.10128C6.83403 8.59645 6.83345 7.98591 7.0988 7.18989C7.37215 6.36983 8.01045 5.72134 8.62612 5.22558C8.93605 4.97602 9.24676 4.76015 9.51137 4.57824C9.52943 4.56582 9.54722 4.5536 9.56474 4.54156C9.80959 4.37334 10.0006 4.24212 10.1211 4.13665L10.2773 4ZM7.06367 10.5228C7.17276 10.9397 7.23449 11.3558 7.25347 11.7665C7.27693 12.274 7.23502 12.7716 7.13744 13.2504C7.57952 13.0722 8.14733 12.9182 8.78439 12.833C8.79291 12.7418 8.81764 12.6342 8.88937 12.5147C8.99276 12.3424 9.18231 12.1627 9.50858 11.9452C9.79075 11.7571 10.1135 11.3951 10.4087 10.922C10.7017 10.4525 10.9574 9.88974 11.1138 9.31608C11.3455 8.46659 11.2647 7.43141 11.032 6.50265C10.8279 5.68805 10.5156 4.98957 10.2278 4.59216C10.1082 4.68153 9.96582 4.77929 9.81426 4.88335C9.79333 4.89772 9.77224 4.9122 9.75101 4.9268C9.48687 5.10839 9.18777 5.31641 8.89141 5.55504C8.29449 6.0357 7.73432 6.62093 7.50008 7.32365C7.25783 8.0504 7.25726 8.60309 7.26766 9.09229C7.26828 9.1213 7.26896 9.15025 7.26964 9.17916C7.28023 9.6322 7.29056 10.0739 7.06561 10.5238L7.06367 10.5228ZM7.00711 13.7724C6.79946 14.4732 6.47275 15.1235 6.06042 15.6926C6.17546 15.6612 6.29802 15.6423 6.42764 15.6406C6.7367 15.6367 7.06872 15.7316 7.41676 15.9636C8.02403 16.3685 8.73905 16.6252 9.35995 16.7804C9.98221 16.936 10.4933 16.9856 10.6834 16.9856C10.8391 16.9856 11.2756 16.9548 11.8231 16.9161C11.9853 16.9047 12.1572 16.8926 12.3344 16.8803C13.0992 16.8276 13.3504 16.7364 13.8878 16.7364C14.2478 16.7364 14.5319 16.7848 14.7513 16.8571C13.8711 14.6368 12.8885 13.6837 11.2993 13.3377C9.58292 12.964 7.85828 13.343 7.00711 13.7724ZM5.55277 15.6616C6.38493 14.6186 6.8983 13.2437 6.83093 11.786C6.76327 10.322 6.10905 8.75835 4.57271 7.34956C2.93998 9.35413 2.56939 10.9364 2.66167 12.0777C2.75688 13.2553 3.34801 14.0041 3.64203 14.2981C4.20686 14.8629 4.95153 15.3428 5.55277 15.6616ZM30.8239 16.3674C29.7943 14.0509 29.6274 12.8408 29.7944 11.8387C29.8829 11.3081 30.0663 10.8253 30.2888 10.2475L30.2995 10.2198C30.5184 9.6513 30.7691 9.00017 30.9807 8.15405C31.0575 7.84687 31.141 7.62904 31.2247 7.48124C31.3092 7.33217 31.384 7.27148 31.4356 7.24882C31.4797 7.22942 31.5312 7.22695 31.6055 7.25937C31.6855 7.29427 31.7817 7.36621 31.891 7.48154C32.1091 7.71178 32.3364 8.0684 32.5521 8.47043C32.7643 8.86582 32.9583 9.29182 33.1151 9.65714C33.2817 10.1812 33.4785 10.8318 33.4139 11.6552C33.349 12.481 33.0189 13.5005 32.0879 14.7422L32.0868 14.7437L30.8239 16.3674Z" fill="black"/>
<path d="M29.5067 13.1793C28.6607 12.1641 27.1802 11.7832 26.1227 11.9103C25.0653 12.0375 24.5211 12.3096 23.7963 12.672C22.9503 13.095 21.6813 14.364 20.8353 14.364C22.7388 15.7035 23.9655 17.0709 25.4882 17.4093C27.011 17.7476 28.0262 16.7748 29.2952 16.3518C29.9297 16.3518 30.6065 16.4364 30.7757 16.7748" stroke="black" stroke-width="0.637155"/>
<path d="M29.1131 12.0893C26.4974 12.0453 23.5229 8.58509 24.6978 5.83451C27.9812 5.83844 30.1785 9.74734 29.1131 12.0893Z" stroke="black" stroke-width="0.637155"/>
<path d="M10.2607 4.50781C10.4017 5.4948 10.2607 9.37223 7.08826 13.3907" stroke="black" stroke-width="0.637155"/>
<path d="M5.94285 15.6094C5.94285 15.6094 6.45341 15.0829 7.2994 14.8714C8.14539 14.6599 8.56839 14.6599 9.20288 14.6599C9.83737 14.6599 10.4719 14.8714 10.4719 14.8714" stroke="black" stroke-width="0.637155" stroke-linecap="round"/>
<path d="M25.7705 14.893C25.7705 14.893 26.456 14.6324 27.3119 14.7991C28.1679 14.9658 28.5511 15.1449 29.1259 15.4136C29.7006 15.6823 30.1858 16.1427 30.1858 16.1427" stroke="black" stroke-width="0.637155" stroke-linecap="round"/>
<path d="M2.85791 30.3096C7.29933 30.9441 14.4902 36.6545 16.1822 41.3074" stroke="black" stroke-width="0.637155"/>
<path d="M2.85822 29.8855C11.3181 30.3085 17.663 34.3269 24.2194 40.4603M2.64673 29.8011C2.87517 29.8011 6.27888 29.53 9.62611 30.097C15.5755 31.1048 24.465 33.7857 28.6608 37.7108" stroke="black" stroke-width="0.637155"/>
</svg>
